<svg xmlns="http://www.w3.org/2000/svg" xmlns:xlink="http://www.w3.org/1999/xlink" version="1.1" class="marks" width="400" height="400" viewBox="0 0 400 400"><g fill="none" stroke-miterlimit="10" transform="translate(60,60)"><g class="mark-group role-frame root" role="graphics-object" aria-roledescription="group mark container"><g transform="translate(140,140)"><path class="background" aria-hidden="true" d="M0,0h280v280h-280Z"/><g><g class="mark-rule role-mark radial-grid" role="graphics-symbol" aria-roledescription="rule mark container"><line transform="translate(0,0)" x2="-129.34313455158014" y2="-53.57568053111258" stroke="gray" stroke-width="1"/><line transform="translate(0,0)" x2="-53.57568053111256" y2="-129.34313455158014" stroke="gray" stroke-width="1"/><line transform="translate(0,0)" x2="53.575680531112575" y2="-129.34313455158014" stroke="gray" stroke-width="1"/><line transform="translate(0,0)" x2="129.34313455158014" y2="-53.57568053111257" stroke="gray" stroke-width="1"/><line transform="translate(0,0)" x2="129.34313455158014" y2="53.57568053111257" stroke="gray" stroke-width="1"/><line transform="translate(0,0)" x2="53.575680531112575" y2="129.34313455158014" stroke="gray" stroke-width="1"/><line transform="translate(0,0)" x2="-53.57568053111256" y2="129.34313455158014" stroke="gray" stroke-width="1"/><line transform="translate(0,0)" x2="-129.34313455158014" y2="53.57568053111258" stroke="gray" stroke-width="1"/></g><g class="mark-group role-scope categories" role="graphics-object" aria-roledescription="group mark container"><g transform="translate(0,0)"><path class="background" aria-hidden="true" d="M0,0h0v0h0Z"/><g><g class="mark-line role-mark category-line" role="graphics-symbol" aria-roledescription="line mark container"><path d="M-90.902,-37.653L-17.691,-42.709L12.847,-31.016L25.015,-10.362L21.911,9.076L6.74,16.271L-4.318,10.425L-8.019,3.322Z" fill="#0f452d" fill-opacity="0.6" stroke="#0f452d" stroke-width="2"/></g><g class="mark-symbol role-mark category-point" role="graphics-symbol" aria-roledescription="symbol mark container"><path transform="translate(-90.90235496285052,-37.652988277265926)" d="M3.536,0A3.536,3.536,0,1,1,-3.536,0A3.536,3.536,0,1,1,3.536,0" fill="#0f452d" stroke="white" stroke-width="1"/><path transform="translate(-17.69068971137337,-42.70910302893177)" d="M3.536,0A3.536,3.536,0,1,1,-3.536,0A3.536,3.536,0,1,1,3.536,0" fill="#0f452d" stroke="white" stroke-width="1"/><path transform="translate(12.847448191360797,-31.01648366546892)" d="M3.536,0A3.536,3.536,0,1,1,-3.536,0A3.536,3.536,0,1,1,3.536,0" fill="#0f452d" stroke="white" stroke-width="1"/><path transform="translate(25.014962222275596,-10.36153661471717)" d="M3.536,0A3.536,3.536,0,1,1,-3.536,0A3.536,3.536,0,1,1,3.536,0" fill="#0f452d" stroke="white" stroke-width="1"/><path transform="translate(21.91072699303768,9.07572028197047)" d="M3.536,0A3.536,3.536,0,1,1,-3.536,0A3.536,3.536,0,1,1,3.536,0" fill="#0f452d" stroke="white" stroke-width="1"/><path transform="translate(6.739820610813962,16.27136632658878)" d="M3.536,0A3.536,3.536,0,1,1,-3.536,0A3.536,3.536,0,1,1,3.536,0" fill="#0f452d" stroke="white" stroke-width="1"/><path transform="translate(-4.318199850807673,10.42505664485736)" d="M3.536,0A3.536,3.536,0,1,1,-3.536,0A3.536,3.536,0,1,1,3.536,0" fill="#0f452d" stroke="white" stroke-width="1"/><path transform="translate(-8.019274342197969,3.32169219292898)" d="M3.536,0A3.536,3.536,0,1,1,-3.536,0A3.536,3.536,0,1,1,3.536,0" fill="#0f452d" stroke="white" stroke-width="1"/></g><g class="mark-text role-mark value-text" role="graphics-object" aria-roledescription="text mark container"><text text-anchor="end" transform="translate(-95.90235496285052,-23.652988277265926)" font-family="Arial, sans-serif" font-size="12px" fill="#7c848c">35%</text><text text-anchor="end" transform="translate(-22.69068971137337,-28.70910302893177)" font-family="Arial, sans-serif" font-size="12px" fill="#7c848c">17%</text><text text-anchor="start" transform="translate(12.847448191360797,-17.01648366546892)" font-family="Arial, sans-serif" font-size="12px" fill="#7c848c">12%</text><text text-anchor="start" transform="translate(25.014962222275596,3.6384633852828294)" font-family="Arial, sans-serif" font-size="12px" fill="#7c848c">10%</text><text text-anchor="start" transform="translate(21.91072699303768,1.0757202819704705)" font-family="Arial, sans-serif" font-size="12px" fill="#7c848c">8%</text><text text-anchor="start" transform="translate(6.739820610813962,8.27136632658878)" font-family="Arial, sans-serif" font-size="12px" fill="#7c848c">6%</text><text text-anchor="end" transform="translate(-9.318199850807673,2.42505664485736)" font-family="Arial, sans-serif" font-size="12px" fill="#7c848c"/><text text-anchor="end" transform="translate(-13.019274342197969,-4.67830780707102)" font-family="Arial, sans-serif" font-size="12px" fill="#7c848c"/></g></g><path class="foreground" aria-hidden="true" d="" display="none"/></g><g transform="translate(0,0)"><path class="background" aria-hidden="true" d="M0,0h0v0h0Z"/><g><g class="mark-line role-mark category-line" role="graphics-symbol" aria-roledescription="line mark container"><path d="M-34.276,-14.198L-49.611,-119.772L7.201,-17.384L0,0L3.285,1.361L14.776,35.673L-2.175,5.251L-33.008,13.673Z" fill="#31b74c" fill-opacity="0.6" stroke="#31b74c" stroke-width="2"/></g><g class="mark-symbol role-mark category-point" role="graphics-symbol" aria-roledescription="symbol mark container"><path transform="translate(-34.27593065616874,-14.197555340744836)" d="M3.536,0A3.536,3.536,0,1,1,-3.536,0A3.536,3.536,0,1,1,3.536,0" fill="#31b74c" stroke="white" stroke-width="1"/><path transform="translate(-49.61108017181023,-119.7717425947632)" d="M3.536,0A3.536,3.536,0,1,1,-3.536,0A3.536,3.536,0,1,1,3.536,0" fill="#31b74c" stroke="white" stroke-width="1"/><path transform="translate(7.20057146338153,-17.38371728373237)" d="M3.536,0A3.536,3.536,0,1,1,-3.536,0A3.536,3.536,0,1,1,3.536,0" fill="#31b74c" stroke="white" stroke-width="1"/><path transform="translate(0,0)" d="M3.536,0A3.536,3.536,0,1,1,-3.536,0A3.536,3.536,0,1,1,3.536,0" fill="#31b74c" stroke="white" stroke-width="1"/><path transform="translate(3.2853156176101357,1.3608222854902592)" d="M3.536,0A3.536,3.536,0,1,1,-3.536,0A3.536,3.536,0,1,1,3.536,0" fill="#31b74c" stroke="white" stroke-width="1"/><path transform="translate(14.77617269048085,35.672836509325805)" d="M3.536,0A3.536,3.536,0,1,1,-3.536,0A3.536,3.536,0,1,1,3.536,0" fill="#31b74c" stroke="white" stroke-width="1"/><path transform="translate(-2.17517262956317,5.251331262794153)" d="M3.536,0A3.536,3.536,0,1,1,-3.536,0A3.536,3.536,0,1,1,3.536,0" fill="#31b74c" stroke="white" stroke-width="1"/><path transform="translate(-33.00836793756325,13.67251367153993)" d="M3.536,0A3.536,3.536,0,1,1,-3.536,0A3.536,3.536,0,1,1,3.536,0" fill="#31b74c" stroke="white" stroke-width="1"/></g><g class="mark-text role-mark value-text" role="graphics-object" aria-roledescription="text mark container"><text text-anchor="end" transform="translate(-39.27593065616874,-0.19755534074483627)" font-family="Arial, sans-serif" font-size="12px" fill="#7c848c">13%</text><text text-anchor="end" transform="translate(-54.61108017181023,-105.7717425947632)" font-family="Arial, sans-serif" font-size="12px" fill="#7c848c">46%</text><text text-anchor="start" transform="translate(7.20057146338153,-3.38371728373237)" font-family="Arial, sans-serif" font-size="12px" fill="#7c848c">7%</text><text text-anchor="start" transform="translate(0,14)" font-family="Arial, sans-serif" font-size="12px" fill="#7c848c"/><text text-anchor="start" transform="translate(3.2853156176101357,-6.63917771450974)" font-family="Arial, sans-serif" font-size="12px" fill="#7c848c"/><text text-anchor="start" transform="translate(14.77617269048085,27.672836509325805)" font-family="Arial, sans-serif" font-size="12px" fill="#7c848c">14%</text><text text-anchor="end" transform="translate(-7.1751726295631695,-2.748668737205847)" font-family="Arial, sans-serif" font-size="12px" fill="#7c848c"/><text text-anchor="end" transform="translate(-38.00836793756325,5.67251367153993)" font-family="Arial, sans-serif" font-size="12px" fill="#7c848c">13%</text></g></g><path class="foreground" aria-hidden="true" d="" display="none"/></g></g><g class="mark-text role-mark key-label" role="graphics-object" aria-roledescription="text mark container"><text text-anchor="end" transform="translate(-143.20132753924943,-62.31593201658893)" font-family="Arial, sans-serif" font-size="12px" fill="#bfc6cc">Python</text><text text-anchor="end" transform="translate(-59.31593201658891,-146.20132753924943)" font-family="Arial, sans-serif" font-size="12px" fill="#bfc6cc">Rust</text><text text-anchor="start" transform="translate(59.315932016588924,-146.20132753924943)" font-family="Arial, sans-serif" font-size="12px" fill="#bfc6cc">unknown</text><text text-anchor="start" transform="translate(143.20132753924943,-62.31593201658892)" font-family="Arial, sans-serif" font-size="12px" fill="#bfc6cc">JavaScript</text><text text-anchor="start" transform="translate(143.20132753924943,68.31593201658892)" font-family="Arial, sans-serif" font-size="12px" fill="#bfc6cc">XML</text><text text-anchor="start" transform="translate(59.315932016588924,152.20132753924943)" font-family="Arial, sans-serif" font-size="12px" fill="#bfc6cc">YAML</text><text text-anchor="end" transform="translate(-59.31593201658891,152.20132753924943)" font-family="Arial, sans-serif" font-size="12px" fill="#bfc6cc">Markdown</text><text text-anchor="end" transform="translate(-143.20132753924943,68.31593201658893)" font-family="Arial, sans-serif" font-size="12px" fill="#bfc6cc">TOML</text></g></g><path class="foreground" aria-hidden="true" d="" display="none"/></g></g></g></svg>