<svg xmlns="http://www.w3.org/2000/svg" xmlns:xlink="http://www.w3.org/1999/xlink" version="1.1" class="marks" width="480" height="379" viewBox="0 0 480 379"><g fill="none" stroke-miterlimit="10" transform="translate(38,30)"><g class="mark-group role-frame root" role="graphics-object" aria-roledescription="group mark container"><g transform="translate(0,0)"><path class="background" aria-hidden="true" d="M0,0h400v272h-400Z"/><g><g class="mark-group role-axis" role="graphics-symbol" aria-roledescription="axis" aria-label="Y-axis for a discrete scale with 8 values: Python, Rust, unknown, JavaScript, XML, ending with TOML"><g transform="translate(0.5,0.5)"><path class="background" aria-hidden="true" d="M0,0h0v0h0Z" pointer-events="none"/><g><g class="mark-rule role-axis-tick" pointer-events="none"><line transform="translate(0,19)" x2="-5" y2="0" stroke="#888" stroke-width="1" opacity="1"/><line transform="translate(0,53)" x2="-5" y2="0" stroke="#888" stroke-width="1" opacity="1"/><line transform="translate(0,86)" x2="-5" y2="0" stroke="#888" stroke-width="1" opacity="1"/><line transform="translate(0,119)" x2="-5" y2="0" stroke="#888" stroke-width="1" opacity="1"/><line transform="translate(0,152)" x2="-5" y2="0" stroke="#888" stroke-width="1" opacity="1"/><line transform="translate(0,185)" x2="-5" y2="0" stroke="#888" stroke-width="1" opacity="1"/><line transform="translate(0,218)" x2="-5" y2="0" stroke="#888" stroke-width="1" opacity="1"/><line transform="translate(0,252)" x2="-5" y2="0" stroke="#888" stroke-width="1" opacity="1"/></g><g class="mark-rule role-axis-domain" pointer-events="none"><line transform="translate(0,0)" x2="0" y2="272" stroke="#888" stroke-width="1" opacity="1"/></g></g><path class="foreground" aria-hidden="true" d="" pointer-events="none" display="none"/></g></g><g class="mark-rect role-mark" role="graphics-symbol" aria-roledescription="rect mark container"><path d="M383.11333333333334,6.634146341463406h18.73777777777775v26.53658536585366h-18.73777777777775Z" fill="#31b74c"/><path d="M0,6.634146341463406h383.11333333333334v26.53658536585366h-383.11333333333334Z" fill="#0f452d"/><path d="M123.36222222222221,39.80487804878048h65.48000000000002v26.53658536585366h-65.48000000000002Z" fill="#31b74c"/><path d="M0,39.80487804878048h123.36222222222221v26.53658536585366h-123.36222222222221Z" fill="#0f452d"/><path d="M127.57555555555555,72.97560975609755h9.50888888888889v26.53658536585366h-9.50888888888889Z" fill="#31b74c"/><path d="M0,72.97560975609755h127.57555555555555v26.53658536585366h-127.57555555555555Z" fill="#0f452d"/><path d="M110.6511111111111,106.14634146341463h0v26.53658536585366h0Z" fill="#31b74c"/><path d="M0,106.14634146341463h110.6511111111111v26.53658536585366h-110.6511111111111Z" fill="#0f452d"/><path d="M95.08888888888889,139.3170731707317h1.8022222222222126v26.53658536585366h-1.8022222222222126Z" fill="#31b74c"/><path d="M0,139.3170731707317h95.08888888888889v26.53658536585366h-95.08888888888889Z" fill="#0f452d"/><path d="M52.42666666666666,172.4878048780488h19.500000000000014v26.53658536585366h-19.500000000000014Z" fill="#31b74c"/><path d="M0,172.4878048780488h52.42666666666666v26.53658536585366h-52.42666666666666Z" fill="#0f452d"/><path d="M43.19555555555555,205.65853658536585h2.87777777777778v26.53658536585366h-2.87777777777778Z" fill="#31b74c"/><path d="M0,205.65853658536585h43.19555555555555v26.53658536585366h-43.19555555555555Z" fill="#0f452d"/><path d="M17.415555555555557,238.8292682926829h18.046666666666667v26.53658536585366h-18.046666666666667Z" fill="#31b74c"/><path d="M0,238.8292682926829h17.415555555555557v26.53658536585366h-17.415555555555557Z" fill="#0f452d"/></g><g class="mark-text role-mark" role="graphics-object" aria-roledescription="text mark container"><text text-anchor="start" transform="translate(5,23.902439024390237)" font-family="Arial, sans-serif" font-size="12px" fill="#bfc6cc">Python (50h)</text><text text-anchor="start" transform="translate(5,57.07317073170731)" font-family="Arial, sans-serif" font-size="12px" fill="#bfc6cc">Rust (24h)</text><text text-anchor="start" transform="translate(5,90.24390243902438)" font-family="Arial, sans-serif" font-size="12px" fill="#bfc6cc">unknown (17h)</text><text text-anchor="start" transform="translate(5,123.41463414634146)" font-family="Arial, sans-serif" font-size="12px" fill="#bfc6cc">JavaScript (14h)</text><text text-anchor="start" transform="translate(5,156.58536585365854)" font-family="Arial, sans-serif" font-size="12px" fill="#bfc6cc">XML (12h)</text><text text-anchor="start" transform="translate(5,189.75609756097563)" font-family="Arial, sans-serif" font-size="12px" fill="#bfc6cc">YAML (9h)</text><text text-anchor="start" transform="translate(5,222.9268292682927)" font-family="Arial, sans-serif" font-size="12px" fill="#bfc6cc">Markdown (6h)</text><text text-anchor="start" transform="translate(5,256.0975609756098)" font-family="Arial, sans-serif" font-size="12px" fill="#bfc6cc">TOML (4h)</text></g><g class="mark-group role-legend" role="graphics-symbol" aria-roledescription="legend" aria-label="Symbol legend for fill color with 2 values: last_7_days, all_time"><g transform="translate(0,307)"><path class="background" aria-hidden="true" d="M0,0h223v12h-223Z" pointer-events="none"/><g><g class="mark-group role-legend-entry"><g transform="translate(0,0)"><path class="background" aria-hidden="true" d="M0,0h0v0h0Z" pointer-events="none"/><g><g class="mark-group role-scope" role="graphics-object" aria-roledescription="group mark container"><g transform="translate(0,0)"><path class="background" aria-hidden="true" d="M0,0h121v12h-121Z" pointer-events="none" opacity="1"/><g><g class="mark-symbol role-legend-symbol" pointer-events="none"><path transform="translate(6,6)" d="M5,0A5,5,0,1,1,-5,0A5,5,0,1,1,5,0" fill="#31b74c" stroke-width="1.5" opacity="1"/></g><g class="mark-text role-legend-label" pointer-events="none"><text text-anchor="start" transform="translate(16,10)" font-family="Arial, sans-serif" font-size="12px" fill="#bfc6cc" opacity="1">last_7_days</text></g></g><path class="foreground" aria-hidden="true" d="" pointer-events="none" display="none"/></g><g transform="translate(131,0)"><path class="background" aria-hidden="true" d="M0,0h92v12h-92Z" pointer-events="none" opacity="1"/><g><g class="mark-symbol role-legend-symbol" pointer-events="none"><path transform="translate(6,6)" d="M5,0A5,5,0,1,1,-5,0A5,5,0,1,1,5,0" fill="#0f452d" stroke-width="1.5" opacity="1"/></g><g class="mark-text role-legend-label" pointer-events="none"><text text-anchor="start" transform="translate(16,10)" font-family="Arial, sans-serif" font-size="12px" fill="#bfc6cc" opacity="1">all_time</text></g></g><path class="foreground" aria-hidden="true" d="" pointer-events="none" display="none"/></g></g></g><path class="foreground" aria-hidden="true" d="" pointer-events="none" display="none"/></g></g></g><path class="foreground" aria-hidden="true" d="" pointer-events="none" display="none"/></g></g><g class="mark-group role-axis" role="graphics-symbol" aria-roledescription="axis" aria-label="X-axis for a linear scale with values from 0k to 180k"><g transform="translate(0.5,272.5)"><path class="background" aria-hidden="true" d="M0,0h0v0h0Z" pointer-events="none"/><g><g class="mark-rule role-axis-tick" pointer-events="none"><line transform="translate(0,0)" x2="0" y2="5" stroke="#3c444c" stroke-width="1" opacity="1"/><line transform="translate(44,0)" x2="0" y2="5" stroke="#3c444c" stroke-width="1" opacity="1"/><line transform="translate(89,0)" x2="0" y2="5" stroke="#3c444c" stroke-width="1" opacity="1"/><line transform="translate(133,0)" x2="0" y2="5" stroke="#3c444c" stroke-width="1" opacity="1"/><line transform="translate(178,0)" x2="0" y2="5" stroke="#3c444c" stroke-width="1" opacity="1"/><line transform="translate(222,0)" x2="0" y2="5" stroke="#3c444c" stroke-width="1" opacity="1"/><line transform="translate(267,0)" x2="0" y2="5" stroke="#3c444c" stroke-width="1" opacity="1"/><line transform="translate(311,0)" x2="0" y2="5" stroke="#3c444c" stroke-width="1" opacity="1"/><line transform="translate(356,0)" x2="0" y2="5" stroke="#3c444c" stroke-width="1" opacity="1"/><line transform="translate(400,0)" x2="0" y2="5" stroke="#3c444c" stroke-width="1" opacity="1"/></g><g class="mark-text role-axis-label" pointer-events="none"><text text-anchor="middle" transform="translate(0,15)" font-family="Arial, sans-serif" font-size="10px" fill="#3c444c" opacity="1">0h</text><text text-anchor="middle" transform="translate(44.44444444444444,15)" font-family="Arial, sans-serif" font-size="10px" fill="#3c444c" opacity="1">6h</text><text text-anchor="middle" transform="translate(88.88888888888889,15)" font-family="Arial, sans-serif" font-size="10px" fill="#3c444c" opacity="1">11h</text><text text-anchor="middle" transform="translate(133.33333333333331,15)" font-family="Arial, sans-serif" font-size="10px" fill="#3c444c" opacity="1">17h</text><text text-anchor="middle" transform="translate(177.77777777777777,15)" font-family="Arial, sans-serif" font-size="10px" fill="#3c444c" opacity="1">22h</text><text text-anchor="middle" transform="translate(222.22222222222223,15)" font-family="Arial, sans-serif" font-size="10px" fill="#3c444c" opacity="1">28h</text><text text-anchor="middle" transform="translate(266.66666666666663,15)" font-family="Arial, sans-serif" font-size="10px" fill="#3c444c" opacity="1">33h</text><text text-anchor="middle" transform="translate(311.11111111111114,15)" font-family="Arial, sans-serif" font-size="10px" fill="#3c444c" opacity="1">39h</text><text text-anchor="middle" transform="translate(355.55555555555554,15)" font-family="Arial, sans-serif" font-size="10px" fill="#3c444c" opacity="1">44h</text><text text-anchor="middle" transform="translate(400,15)" font-family="Arial, sans-serif" font-size="10px" fill="#3c444c" opacity="1">50h</text></g><g class="mark-rule role-axis-domain" pointer-events="none"><line transform="translate(0,0)" x2="400" y2="0" stroke="#888" stroke-width="1" opacity="1"/></g></g><path class="foreground" aria-hidden="true" d="" pointer-events="none" display="none"/></g></g></g><path class="foreground" aria-hidden="true" d="" display="none"/></g></g></g></svg>