<svg xmlns="http://www.w3.org/2000/svg" xmlns:xlink="http://www.w3.org/1999/xlink" version="1.1" class="marks" width="480" height="379" viewBox="0 0 480 379"><g fill="none" stroke-miterlimit="10" transform="translate(38,30)"><g class="mark-group role-frame root" role="graphics-object" aria-roledescription="group mark container"><g transform="translate(0,0)"><path class="background" aria-hidden="true" d="M0,0h400v272h-400Z"/><g><g class="mark-group role-axis" role="graphics-symbol" aria-roledescription="axis" aria-label="Y-axis for a discrete scale with 8 values: Python, Rust, unknown, JavaScript, XML, ending with TOML"><g transform="translate(0.5,0.5)"><path class="background" aria-hidden="true" d="M0,0h0v0h0Z" pointer-events="none"/><g><g class="mark-rule role-axis-tick" pointer-events="none"><line transform="translate(0,19)" x2="-5" y2="0" stroke="#888" stroke-width="1" opacity="1"/><line transform="translate(0,53)" x2="-5" y2="0" stroke="#888" stroke-width="1" opacity="1"/><line transform="translate(0,86)" x2="-5" y2="0" stroke="#888" stroke-width="1" opacity="1"/><line transform="translate(0,119)" x2="-5" y2="0" stroke="#888" stroke-width="1" opacity="1"/><line transform="translate(0,152)" x2="-5" y2="0" stroke="#888" stroke-width="1" opacity="1"/><line transform="translate(0,185)" x2="-5" y2="0" stroke="#888" stroke-width="1" opacity="1"/><line transform="translate(0,218)" x2="-5" y2="0" stroke="#888" stroke-width="1" opacity="1"/><line transform="translate(0,252)" x2="-5" y2="0" stroke="#888" stroke-width="1" opacity="1"/></g><g class="mark-rule role-axis-domain" pointer-events="none"><line transform="translate(0,0)" x2="0" y2="272" stroke="#888" stroke-width="1" opacity="1"/></g></g><path class="foreground" aria-hidden="true" d="" pointer-events="none" display="none"/></g></g><g class="mark-rect role-mark" role="graphics-symbol" aria-roledescription="rect mark container"><path d="M361.06600000000003,6.634146341463406h3.051999999999964v26.53658536585366h-3.051999999999964Z" fill="#31b74c"/><path d="M0,6.634146341463406h361.06600000000003v26.53658536585366h-361.06600000000003Z" fill="#0f452d"/><path d="M169.958,39.80487804878048h0.12600000000000477v26.53658536585366h-0.12600000000000477Z" fill="#31b74c"/><path d="M0,39.80487804878048h169.958v26.53658536585366h-169.958Z" fill="#0f452d"/><path d="M123.37599999999999,72.97560975609755h22.060000000000016v26.53658536585366h-22.060000000000016Z" fill="#31b74c"/><path d="M0,72.97560975609755h123.37599999999999v26.53658536585366h-123.37599999999999Z" fill="#0f452d"/><path d="M99.586,106.14634146341463h0.01999999999999602v26.53658536585366h-0.01999999999999602Z" fill="#31b74c"/><path d="M0,106.14634146341463h99.586v26.53658536585366h-99.586Z" fill="#0f452d"/><path d="M87.202,139.3170731707317h0v26.53658536585366h0Z" fill="#31b74c"/><path d="M0,139.3170731707317h87.202v26.53658536585366h-87.202Z" fill="#0f452d"/><path d="M64.134,172.4878048780488h4.221999999999994v26.53658536585366h-4.221999999999994Z" fill="#31b74c"/><path d="M0,172.4878048780488h64.134v26.53658536585366h-64.134Z" fill="#0f452d"/><path d="M41.465999999999994,205.65853658536585h13.748000000000005v26.53658536585366h-13.748000000000005Z" fill="#31b74c"/><path d="M0,205.65853658536585h41.465999999999994v26.53658536585366h-41.465999999999994Z" fill="#0f452d"/><path d="M31.916,238.8292682926829h0v26.53658536585366h0Z" fill="#31b74c"/><path d="M0,238.8292682926829h31.916v26.53658536585366h-31.916Z" fill="#0f452d"/></g><g class="mark-text role-mark" role="graphics-object" aria-roledescription="text mark container"><text text-anchor="start" transform="translate(5,23.902439024390237)" font-family="Arial, sans-serif" font-size="12px" fill="#bfc6cc">Python (51h)</text><text text-anchor="start" transform="translate(5,57.07317073170731)" font-family="Arial, sans-serif" font-size="12px" fill="#bfc6cc">Rust (24h)</text><text text-anchor="start" transform="translate(5,90.24390243902438)" font-family="Arial, sans-serif" font-size="12px" fill="#bfc6cc">unknown (20h)</text><text text-anchor="start" transform="translate(5,123.41463414634146)" font-family="Arial, sans-serif" font-size="12px" fill="#bfc6cc">JavaScript (14h)</text><text text-anchor="start" transform="translate(5,156.58536585365854)" font-family="Arial, sans-serif" font-size="12px" fill="#bfc6cc">XML (12h)</text><text text-anchor="start" transform="translate(5,189.75609756097563)" font-family="Arial, sans-serif" font-size="12px" fill="#bfc6cc">YAML (9h)</text><text text-anchor="start" transform="translate(5,222.9268292682927)" font-family="Arial, sans-serif" font-size="12px" fill="#bfc6cc">Markdown (8h)</text><text text-anchor="start" transform="translate(5,256.0975609756098)" font-family="Arial, sans-serif" font-size="12px" fill="#bfc6cc">TOML (4h)</text></g><g class="mark-group role-legend" role="graphics-symbol" aria-roledescription="legend" aria-label="Symbol legend for fill color with 2 values: last_7_days, all_time"><g transform="translate(0,307)"><path class="background" aria-hidden="true" d="M0,0h223v12h-223Z" pointer-events="none"/><g><g class="mark-group role-legend-entry"><g transform="translate(0,0)"><path class="background" aria-hidden="true" d="M0,0h0v0h0Z" pointer-events="none"/><g><g class="mark-group role-scope" role="graphics-object" aria-roledescription="group mark container"><g transform="translate(0,0)"><path class="background" aria-hidden="true" d="M0,0h121v12h-121Z" pointer-events="none" opacity="1"/><g><g class="mark-symbol role-legend-symbol" pointer-events="none"><path transform="translate(6,6)" d="M5,0A5,5,0,1,1,-5,0A5,5,0,1,1,5,0" fill="#31b74c" stroke-width="1.5" opacity="1"/></g><g class="mark-text role-legend-label" pointer-events="none"><text text-anchor="start" transform="translate(16,10)" font-family="Arial, sans-serif" font-size="12px" fill="#bfc6cc" opacity="1">last_7_days</text></g></g><path class="foreground" aria-hidden="true" d="" pointer-events="none" display="none"/></g><g transform="translate(131,0)"><path class="background" aria-hidden="true" d="M0,0h92v12h-92Z" pointer-events="none" opacity="1"/><g><g class="mark-symbol role-legend-symbol" pointer-events="none"><path transform="translate(6,6)" d="M5,0A5,5,0,1,1,-5,0A5,5,0,1,1,5,0" fill="#0f452d" stroke-width="1.5" opacity="1"/></g><g class="mark-text role-legend-label" pointer-events="none"><text text-anchor="start" transform="translate(16,10)" font-family="Arial, sans-serif" font-size="12px" fill="#bfc6cc" opacity="1">all_time</text></g></g><path class="foreground" aria-hidden="true" d="" pointer-events="none" display="none"/></g></g></g><path class="foreground" aria-hidden="true" d="" pointer-events="none" display="none"/></g></g></g><path class="foreground" aria-hidden="true" d="" pointer-events="none" display="none"/></g></g><g class="mark-group role-axis" role="graphics-symbol" aria-roledescription="axis" aria-label="X-axis for a linear scale with values from 0k to 200k"><g transform="translate(0.5,272.5)"><path class="background" aria-hidden="true" d="M0,0h0v0h0Z" pointer-events="none"/><g><g class="mark-rule role-axis-tick" pointer-events="none"><line transform="translate(0,0)" x2="0" y2="5" stroke="#3c444c" stroke-width="1" opacity="1"/><line transform="translate(40,0)" x2="0" y2="5" stroke="#3c444c" stroke-width="1" opacity="1"/><line transform="translate(80,0)" x2="0" y2="5" stroke="#3c444c" stroke-width="1" opacity="1"/><line transform="translate(120,0)" x2="0" y2="5" stroke="#3c444c" stroke-width="1" opacity="1"/><line transform="translate(160,0)" x2="0" y2="5" stroke="#3c444c" stroke-width="1" opacity="1"/><line transform="translate(200,0)" x2="0" y2="5" stroke="#3c444c" stroke-width="1" opacity="1"/><line transform="translate(240,0)" x2="0" y2="5" stroke="#3c444c" stroke-width="1" opacity="1"/><line transform="translate(280,0)" x2="0" y2="5" stroke="#3c444c" stroke-width="1" opacity="1"/><line transform="translate(320,0)" x2="0" y2="5" stroke="#3c444c" stroke-width="1" opacity="1"/><line transform="translate(360,0)" x2="0" y2="5" stroke="#3c444c" stroke-width="1" opacity="1"/><line transform="translate(400,0)" x2="0" y2="5" stroke="#3c444c" stroke-width="1" opacity="1"/></g><g class="mark-text role-axis-label" pointer-events="none"><text text-anchor="middle" transform="translate(0,15)" font-family="Arial, sans-serif" font-size="10px" fill="#3c444c" opacity="1">0h</text><text text-anchor="middle" transform="translate(40,15)" font-family="Arial, sans-serif" font-size="10px" fill="#3c444c" opacity="1">6h</text><text text-anchor="middle" transform="translate(80,15)" font-family="Arial, sans-serif" font-size="10px" fill="#3c444c" opacity="1">11h</text><text text-anchor="middle" transform="translate(120,15)" font-family="Arial, sans-serif" font-size="10px" fill="#3c444c" opacity="1">17h</text><text text-anchor="middle" transform="translate(160,15)" font-family="Arial, sans-serif" font-size="10px" fill="#3c444c" opacity="1">22h</text><text text-anchor="middle" transform="translate(200,15)" font-family="Arial, sans-serif" font-size="10px" fill="#3c444c" opacity="1">28h</text><text text-anchor="middle" transform="translate(240,15)" font-family="Arial, sans-serif" font-size="10px" fill="#3c444c" opacity="1">33h</text><text text-anchor="middle" transform="translate(280,15)" font-family="Arial, sans-serif" font-size="10px" fill="#3c444c" opacity="1">39h</text><text text-anchor="middle" transform="translate(320,15)" font-family="Arial, sans-serif" font-size="10px" fill="#3c444c" opacity="1">44h</text><text text-anchor="middle" transform="translate(360,15)" font-family="Arial, sans-serif" font-size="10px" fill="#3c444c" opacity="1">50h</text><text text-anchor="middle" transform="translate(400,15)" font-family="Arial, sans-serif" font-size="10px" fill="#3c444c" opacity="1">56h</text></g><g class="mark-rule role-axis-domain" pointer-events="none"><line transform="translate(0,0)" x2="400" y2="0" stroke="#888" stroke-width="1" opacity="1"/></g></g><path class="foreground" aria-hidden="true" d="" pointer-events="none" display="none"/></g></g></g><path class="foreground" aria-hidden="true" d="" display="none"/></g></g></g></svg>