<svg xmlns="http://www.w3.org/2000/svg" xmlns:xlink="http://www.w3.org/1999/xlink" version="1.1" class="marks" width="400" height="400" viewBox="0 0 400 400"><g fill="none" stroke-miterlimit="10" transform="translate(60,60)"><g class="mark-group role-frame root" role="graphics-object" aria-roledescription="group mark container"><g transform="translate(140,140)"><path class="background" aria-hidden="true" d="M0,0h280v280h-280Z"/><g><g class="mark-rule role-mark radial-grid" role="graphics-symbol" aria-roledescription="rule mark container"><line transform="translate(0,0)" x2="-129.34313455158014" y2="-53.57568053111258" stroke="gray" stroke-width="1"/><line transform="translate(0,0)" x2="-53.57568053111256" y2="-129.34313455158014" stroke="gray" stroke-width="1"/><line transform="translate(0,0)" x2="53.575680531112575" y2="-129.34313455158014" stroke="gray" stroke-width="1"/><line transform="translate(0,0)" x2="129.34313455158014" y2="-53.57568053111257" stroke="gray" stroke-width="1"/><line transform="translate(0,0)" x2="129.34313455158014" y2="53.57568053111257" stroke="gray" stroke-width="1"/><line transform="translate(0,0)" x2="53.575680531112575" y2="129.34313455158014" stroke="gray" stroke-width="1"/><line transform="translate(0,0)" x2="-53.57568053111256" y2="129.34313455158014" stroke="gray" stroke-width="1"/><line transform="translate(0,0)" x2="-129.34313455158014" y2="53.57568053111258" stroke="gray" stroke-width="1"/></g><g class="mark-group role-scope categories" role="graphics-object" aria-roledescription="group mark container"><g transform="translate(0,0)"><path class="background" aria-hidden="true" d="M0,0h0v0h0Z"/><g><g class="mark-line role-mark category-line" role="graphics-symbol" aria-roledescription="line mark container"><path d="M-87.772,-36.356L-16.983,-41.002L14.519,-35.052L24.006,-9.944L21.005,8.701L6.826,16.478L-5.508,13.296L-7.683,3.182Z" fill="#0f452d" fill-opacity="0.6" stroke="#0f452d" stroke-width="2"/></g><g class="mark-symbol role-mark category-point" role="graphics-symbol" aria-roledescription="symbol mark container"><path transform="translate(-87.77225110670227,-36.35645680841299)" d="M3.536,0A3.536,3.536,0,1,1,-3.536,0A3.536,3.536,0,1,1,3.536,0" fill="#0f452d" stroke="white" stroke-width="1"/><path transform="translate(-16.983490728362682,-41.00177365285091)" d="M3.536,0A3.536,3.536,0,1,1,-3.536,0A3.536,3.536,0,1,1,3.536,0" fill="#0f452d" stroke="white" stroke-width="1"/><path transform="translate(14.51900942393151,-35.05198946347822)" d="M3.536,0A3.536,3.536,0,1,1,-3.536,0A3.536,3.536,0,1,1,3.536,0" fill="#0f452d" stroke="white" stroke-width="1"/><path transform="translate(24.00608577277327,-9.943646306574491)" d="M3.536,0A3.536,3.536,0,1,1,-3.536,0A3.536,3.536,0,1,1,3.536,0" fill="#0f452d" stroke="white" stroke-width="1"/><path transform="translate(21.005325051176612,8.70069051825268)" d="M3.536,0A3.536,3.536,0,1,1,-3.536,0A3.536,3.536,0,1,1,3.536,0" fill="#0f452d" stroke="white" stroke-width="1"/><path transform="translate(6.825541699663743,16.478315341871312)" d="M3.536,0A3.536,3.536,0,1,1,-3.536,0A3.536,3.536,0,1,1,3.536,0" fill="#0f452d" stroke="white" stroke-width="1"/><path transform="translate(-5.50757995859837,13.296474231902437)" d="M3.536,0A3.536,3.536,0,1,1,-3.536,0A3.536,3.536,0,1,1,3.536,0" fill="#0f452d" stroke="white" stroke-width="1"/><path transform="translate(-7.682982192363861,3.182395423548088)" d="M3.536,0A3.536,3.536,0,1,1,-3.536,0A3.536,3.536,0,1,1,3.536,0" fill="#0f452d" stroke="white" stroke-width="1"/></g><g class="mark-text role-mark value-text" role="graphics-object" aria-roledescription="text mark container"><text text-anchor="end" transform="translate(-92.77225110670227,-22.356456808412993)" font-family="Arial, sans-serif" font-size="12px" fill="#7c848c">34%</text><text text-anchor="end" transform="translate(-21.983490728362682,-27.001773652850908)" font-family="Arial, sans-serif" font-size="12px" fill="#7c848c">16%</text><text text-anchor="start" transform="translate(14.51900942393151,-21.051989463478222)" font-family="Arial, sans-serif" font-size="12px" fill="#7c848c">14%</text><text text-anchor="start" transform="translate(24.00608577277327,4.056353693425509)" font-family="Arial, sans-serif" font-size="12px" fill="#7c848c">9%</text><text text-anchor="start" transform="translate(21.005325051176612,0.7006905182526797)" font-family="Arial, sans-serif" font-size="12px" fill="#7c848c">8%</text><text text-anchor="start" transform="translate(6.825541699663743,8.478315341871312)" font-family="Arial, sans-serif" font-size="12px" fill="#7c848c">6%</text><text text-anchor="end" transform="translate(-10.50757995859837,5.296474231902437)" font-family="Arial, sans-serif" font-size="12px" fill="#7c848c">5%</text><text text-anchor="end" transform="translate(-12.68298219236386,-4.817604576451912)" font-family="Arial, sans-serif" font-size="12px" fill="#7c848c"/></g></g><path class="foreground" aria-hidden="true" d="" display="none"/></g><g transform="translate(0,0)"><path class="background" aria-hidden="true" d="M0,0h0v0h0Z"/><g><g class="mark-line role-mark category-line" role="graphics-symbol" aria-roledescription="line mark container"><path d="M-17.487,-7.243L-0.3,-0.724L52.376,-126.446L0.103,-0.043L0,0L10.029,24.213L-32.638,78.796L0,0Z" fill="#31b74c" fill-opacity="0.6" stroke="#31b74c" stroke-width="2"/></g><g class="mark-symbol role-mark category-point" role="graphics-symbol" aria-roledescription="symbol mark container"><path transform="translate(-17.487191791373633,-7.243432007806421)" d="M3.536,0A3.536,3.536,0,1,1,-3.536,0A3.536,3.536,0,1,1,3.536,0" fill="#31b74c" stroke="white" stroke-width="1"/><path transform="translate(-0.3000238109742304,-0.724321553488849)" d="M3.536,0A3.536,3.536,0,1,1,-3.536,0A3.536,3.536,0,1,1,3.536,0" fill="#31b74c" stroke="white" stroke-width="1"/><path transform="translate(52.37558528721566,-126.44584833762475)" d="M3.536,0A3.536,3.536,0,1,1,-3.536,0A3.536,3.536,0,1,1,3.536,0" fill="#31b74c" stroke="white" stroke-width="1"/><path transform="translate(0.10347450764126412,-0.042860544424890054)" d="M3.536,0A3.536,3.536,0,1,1,-3.536,0A3.536,3.536,0,1,1,3.536,0" fill="#31b74c" stroke="white" stroke-width="1"/><path transform="translate(0,0)" d="M3.536,0A3.536,3.536,0,1,1,-3.536,0A3.536,3.536,0,1,1,3.536,0" fill="#31b74c" stroke="white" stroke-width="1"/><path transform="translate(10.029367395424273,24.2130347880558)" d="M3.536,0A3.536,3.536,0,1,1,-3.536,0A3.536,3.536,0,1,1,3.536,0" fill="#31b74c" stroke="white" stroke-width="1"/><path transform="translate(-32.63830457955377,78.79583756882262)" d="M3.536,0A3.536,3.536,0,1,1,-3.536,0A3.536,3.536,0,1,1,3.536,0" fill="#31b74c" stroke="white" stroke-width="1"/><path transform="translate(0,0)" d="M3.536,0A3.536,3.536,0,1,1,-3.536,0A3.536,3.536,0,1,1,3.536,0" fill="#31b74c" stroke="white" stroke-width="1"/></g><g class="mark-text role-mark value-text" role="graphics-object" aria-roledescription="text mark container"><text text-anchor="end" transform="translate(-22.487191791373633,6.756567992193579)" font-family="Arial, sans-serif" font-size="12px" fill="#7c848c">7%</text><text text-anchor="end" transform="translate(-5.30002381097423,13.27567844651115)" font-family="Arial, sans-serif" font-size="12px" fill="#7c848c"/><text text-anchor="start" transform="translate(52.37558528721566,-112.44584833762475)" font-family="Arial, sans-serif" font-size="12px" fill="#7c848c">49%</text><text text-anchor="start" transform="translate(0.10347450764126412,13.95713945557511)" font-family="Arial, sans-serif" font-size="12px" fill="#7c848c"/><text text-anchor="start" transform="translate(0,-8)" font-family="Arial, sans-serif" font-size="12px" fill="#7c848c"/><text text-anchor="start" transform="translate(10.029367395424273,16.2130347880558)" font-family="Arial, sans-serif" font-size="12px" fill="#7c848c">9%</text><text text-anchor="end" transform="translate(-37.63830457955377,70.79583756882262)" font-family="Arial, sans-serif" font-size="12px" fill="#7c848c">30%</text><text text-anchor="end" transform="translate(-5,-8)" font-family="Arial, sans-serif" font-size="12px" fill="#7c848c"/></g></g><path class="foreground" aria-hidden="true" d="" display="none"/></g></g><g class="mark-text role-mark key-label" role="graphics-object" aria-roledescription="text mark container"><text text-anchor="end" transform="translate(-143.20132753924943,-62.31593201658893)" font-family="Arial, sans-serif" font-size="12px" fill="#bfc6cc">Python</text><text text-anchor="end" transform="translate(-59.31593201658891,-146.20132753924943)" font-family="Arial, sans-serif" font-size="12px" fill="#bfc6cc">Rust</text><text text-anchor="start" transform="translate(59.315932016588924,-146.20132753924943)" font-family="Arial, sans-serif" font-size="12px" fill="#bfc6cc">unknown</text><text text-anchor="start" transform="translate(143.20132753924943,-62.31593201658892)" font-family="Arial, sans-serif" font-size="12px" fill="#bfc6cc">JavaScript</text><text text-anchor="start" transform="translate(143.20132753924943,68.31593201658892)" font-family="Arial, sans-serif" font-size="12px" fill="#bfc6cc">XML</text><text text-anchor="start" transform="translate(59.315932016588924,152.20132753924943)" font-family="Arial, sans-serif" font-size="12px" fill="#bfc6cc">YAML</text><text text-anchor="end" transform="translate(-59.31593201658891,152.20132753924943)" font-family="Arial, sans-serif" font-size="12px" fill="#bfc6cc">Markdown</text><text text-anchor="end" transform="translate(-143.20132753924943,68.31593201658893)" font-family="Arial, sans-serif" font-size="12px" fill="#bfc6cc">TOML</text></g></g><path class="foreground" aria-hidden="true" d="" display="none"/></g></g></g></svg>