<svg xmlns="http://www.w3.org/2000/svg" xmlns:xlink="http://www.w3.org/1999/xlink" version="1.1" class="marks" width="400" height="400" viewBox="0 0 400 400"><g fill="none" stroke-miterlimit="10" transform="translate(60,60)"><g class="mark-group role-frame root" role="graphics-object" aria-roledescription="group mark container"><g transform="translate(140,140)"><path class="background" aria-hidden="true" d="M0,0h280v280h-280Z"/><g><g class="mark-rule role-mark radial-grid" role="graphics-symbol" aria-roledescription="rule mark container"><line transform="translate(0,0)" x2="-121.24355652982139" y2="-70.00000000000004" stroke="gray" stroke-width="1"/><line transform="translate(0,0)" x2="3.9658772283535856e-14" y2="-140" stroke="gray" stroke-width="1"/><line transform="translate(0,0)" x2="121.24355652982142" y2="-69.99999999999997" stroke="gray" stroke-width="1"/><line transform="translate(0,0)" x2="121.24355652982139" y2="70.00000000000003" stroke="gray" stroke-width="1"/><line transform="translate(0,0)" x2="8.572527594031473e-15" y2="140" stroke="gray" stroke-width="1"/><line transform="translate(0,0)" x2="-121.24355652982139" y2="70.00000000000004" stroke="gray" stroke-width="1"/></g><g class="mark-group role-scope categories" role="graphics-object" aria-roledescription="group mark container"><g transform="translate(0,0)"><path class="background" aria-hidden="true" d="M0,0h0v0h0Z"/><g><g class="mark-line role-mark category-line" role="graphics-symbol" aria-roledescription="line mark container"><path d="M-107.592,-62.118L0,-38.892L32.299,-18.648L27.741,16.016L0,14.98L-11.227,6.482Z" fill="#0f452d" fill-opacity="0.6" stroke="#0f452d" stroke-width="2"/></g><g class="mark-symbol role-mark category-point" role="graphics-symbol" aria-roledescription="symbol mark container"><path transform="translate(-107.5915320645635,-62.11800000000004)" d="M3.536,0A3.536,3.536,0,1,1,-3.536,0A3.536,3.536,0,1,1,3.536,0" fill="#0f452d" stroke="white" stroke-width="1"/><path transform="translate(1.101720694036626e-14,-38.891999999999996)" d="M3.536,0A3.536,3.536,0,1,1,-3.536,0A3.536,3.536,0,1,1,3.536,0" fill="#0f452d" stroke="white" stroke-width="1"/><path transform="translate(32.299283459544434,-18.647999999999996)" d="M3.536,0A3.536,3.536,0,1,1,-3.536,0A3.536,3.536,0,1,1,3.536,0" fill="#0f452d" stroke="white" stroke-width="1"/><path transform="translate(27.740525734023137,16.01600000000001)" d="M3.536,0A3.536,3.536,0,1,1,-3.536,0A3.536,3.536,0,1,1,3.536,0" fill="#0f452d" stroke="white" stroke-width="1"/><path transform="translate(9.172604525613676e-16,14.98)" d="M3.536,0A3.536,3.536,0,1,1,-3.536,0A3.536,3.536,0,1,1,3.536,0" fill="#0f452d" stroke="white" stroke-width="1"/><path transform="translate(-11.22715333466146,6.482000000000005)" d="M3.536,0A3.536,3.536,0,1,1,-3.536,0A3.536,3.536,0,1,1,3.536,0" fill="#0f452d" stroke="white" stroke-width="1"/></g><g class="mark-text role-mark value-text" role="graphics-object" aria-roledescription="text mark container"><text text-anchor="end" transform="translate(-112.5915320645635,-48.11800000000004)" font-family="Arial, sans-serif" font-size="12px" fill="#7c848c">44%</text><text text-anchor="start" transform="translate(1.101720694036626e-14,-24.891999999999996)" font-family="Arial, sans-serif" font-size="12px" fill="#7c848c">14%</text><text text-anchor="start" transform="translate(32.299283459544434,-4.647999999999996)" font-family="Arial, sans-serif" font-size="12px" fill="#7c848c">13%</text><text text-anchor="start" transform="translate(27.740525734023137,8.016000000000009)" font-family="Arial, sans-serif" font-size="12px" fill="#7c848c">11%</text><text text-anchor="start" transform="translate(9.172604525613676e-16,6.98)" font-family="Arial, sans-serif" font-size="12px" fill="#7c848c">5%</text><text text-anchor="end" transform="translate(-16.22715333466146,-1.5179999999999954)" font-family="Arial, sans-serif" font-size="12px" fill="#7c848c"/></g></g><path class="foreground" aria-hidden="true" d="" display="none"/></g><g transform="translate(0,0)"><path class="background" aria-hidden="true" d="M0,0h0v0h0Z"/><g><g class="mark-line role-mark category-line" role="graphics-symbol" aria-roledescription="line mark container"><path d="M-0.824,-0.476L0,-30.044L97.14,-56.084L12.27,7.084L0,45.024L-28.104,16.226Z" fill="#31b74c" fill-opacity="0.6" stroke="#31b74c" stroke-width="2"/></g><g class="mark-symbol role-mark category-point" role="graphics-symbol" aria-roledescription="symbol mark container"><path transform="translate(-0.8244561844027855,-0.47600000000000037)" d="M3.536,0A3.536,3.536,0,1,1,-3.536,0A3.536,3.536,0,1,1,3.536,0" fill="#31b74c" stroke="white" stroke-width="1"/><path transform="translate(8.510772532046795e-15,-30.044)" d="M3.536,0A3.536,3.536,0,1,1,-3.536,0A3.536,3.536,0,1,1,3.536,0" fill="#31b74c" stroke="white" stroke-width="1"/><path transform="translate(97.14033749169293,-56.08399999999998)" d="M3.536,0A3.536,3.536,0,1,1,-3.536,0A3.536,3.536,0,1,1,3.536,0" fill="#31b74c" stroke="white" stroke-width="1"/><path transform="translate(12.269847920817924,7.084000000000003)" d="M3.536,0A3.536,3.536,0,1,1,-3.536,0A3.536,3.536,0,1,1,3.536,0" fill="#31b74c" stroke="white" stroke-width="1"/><path transform="translate(2.756924874240521e-15,45.023999999999994)" d="M3.536,0A3.536,3.536,0,1,1,-3.536,0A3.536,3.536,0,1,1,3.536,0" fill="#31b74c" stroke="white" stroke-width="1"/><path transform="translate(-28.104256403612595,16.22600000000001)" d="M3.536,0A3.536,3.536,0,1,1,-3.536,0A3.536,3.536,0,1,1,3.536,0" fill="#31b74c" stroke="white" stroke-width="1"/></g><g class="mark-text role-mark value-text" role="graphics-object" aria-roledescription="text mark container"><text text-anchor="end" transform="translate(-5.824456184402785,13.524)" font-family="Arial, sans-serif" font-size="12px" fill="#7c848c"/><text text-anchor="start" transform="translate(8.510772532046795e-15,-16.044)" font-family="Arial, sans-serif" font-size="12px" fill="#7c848c">11%</text><text text-anchor="start" transform="translate(97.14033749169293,-42.08399999999998)" font-family="Arial, sans-serif" font-size="12px" fill="#7c848c">40%</text><text text-anchor="start" transform="translate(12.269847920817924,-0.9159999999999968)" font-family="Arial, sans-serif" font-size="12px" fill="#7c848c">5%</text><text text-anchor="start" transform="translate(2.756924874240521e-15,37.023999999999994)" font-family="Arial, sans-serif" font-size="12px" fill="#7c848c">16%</text><text text-anchor="end" transform="translate(-33.104256403612595,8.22600000000001)" font-family="Arial, sans-serif" font-size="12px" fill="#7c848c">12%</text></g></g><path class="foreground" aria-hidden="true" d="" display="none"/></g></g><g class="mark-text role-mark key-label" role="graphics-object" aria-roledescription="text mark container"><text text-anchor="end" transform="translate(-134.23393758658796,-80.50000000000006)" font-family="Arial, sans-serif" font-size="12px" fill="#bfc6cc">Python</text><text text-anchor="start" transform="translate(4.390792645677184e-14,-158)" font-family="Arial, sans-serif" font-size="12px" fill="#bfc6cc">unknown</text><text text-anchor="start" transform="translate(134.233937586588,-80.49999999999997)" font-family="Arial, sans-serif" font-size="12px" fill="#bfc6cc">JavaScript</text><text text-anchor="start" transform="translate(134.23393758658796,86.50000000000003)" font-family="Arial, sans-serif" font-size="12px" fill="#bfc6cc">XML</text><text text-anchor="start" transform="translate(9.491012693391987e-15,164)" font-family="Arial, sans-serif" font-size="12px" fill="#bfc6cc">YAML</text><text text-anchor="end" transform="translate(-134.23393758658796,86.50000000000006)" font-family="Arial, sans-serif" font-size="12px" fill="#bfc6cc">Markdown</text></g></g><path class="foreground" aria-hidden="true" d="" display="none"/></g></g></g></svg>