<svg xmlns="http://www.w3.org/2000/svg" xmlns:xlink="http://www.w3.org/1999/xlink" version="1.1" class="marks" width="504" height="379" viewBox="0 0 504 379"><g fill="none" stroke-miterlimit="10" transform="translate(38,30)"><g class="mark-group role-frame root" role="graphics-object" aria-roledescription="group mark container"><g transform="translate(0,0)"><path class="background" aria-hidden="true" d="M0,0h400v272h-400Z"/><g><g class="mark-group role-axis" role="graphics-symbol" aria-roledescription="axis" aria-label="Y-axis for a discrete scale with 8 values: robot-nm, onshape-robotics-toolkit, senthurayyappan, umv-codesign, ballbot-mujoco, ending with readme-stats"><g transform="translate(0.5,0.5)"><path class="background" aria-hidden="true" d="M0,0h0v0h0Z" pointer-events="none"/><g><g class="mark-rule role-axis-tick" pointer-events="none"><line transform="translate(0,19)" x2="-5" y2="0" stroke="#888" stroke-width="1" opacity="1"/><line transform="translate(0,53)" x2="-5" y2="0" stroke="#888" stroke-width="1" opacity="1"/><line transform="translate(0,86)" x2="-5" y2="0" stroke="#888" stroke-width="1" opacity="1"/><line transform="translate(0,119)" x2="-5" y2="0" stroke="#888" stroke-width="1" opacity="1"/><line transform="translate(0,152)" x2="-5" y2="0" stroke="#888" stroke-width="1" opacity="1"/><line transform="translate(0,185)" x2="-5" y2="0" stroke="#888" stroke-width="1" opacity="1"/><line transform="translate(0,218)" x2="-5" y2="0" stroke="#888" stroke-width="1" opacity="1"/><line transform="translate(0,252)" x2="-5" y2="0" stroke="#888" stroke-width="1" opacity="1"/></g><g class="mark-rule role-axis-domain" pointer-events="none"><line transform="translate(0,0)" x2="0" y2="272" stroke="#888" stroke-width="1" opacity="1"/></g></g><path class="foreground" aria-hidden="true" d="" pointer-events="none" display="none"/></g></g><g class="mark-rect role-mark" role="graphics-symbol" aria-roledescription="rect mark container"><path d="M258.80727272727273,6.634146341463406h176.21454545454543v26.53658536585366h-176.21454545454543Z" fill="#31b74c"/><path d="M0,6.634146341463406h258.80727272727273v26.53658536585366h-258.80727272727273Z" fill="#0f452d"/><path d="M366.59999999999997,39.80487804878048h30.047272727272798v26.53658536585366h-30.047272727272798Z" fill="#31b74c"/><path d="M0,39.80487804878048h366.59999999999997v26.53658536585366h-366.59999999999997Z" fill="#0f452d"/><path d="M315.9927272727273,72.97560975609755h0v26.53658536585366h0Z" fill="#31b74c"/><path d="M0,72.97560975609755h315.9927272727273v26.53658536585366h-315.9927272727273Z" fill="#0f452d"/><path d="M285.73818181818183,106.14634146341463h0v26.53658536585366h0Z" fill="#31b74c"/><path d="M0,106.14634146341463h285.73818181818183v26.53658536585366h-285.73818181818183Z" fill="#0f452d"/><path d="M210.3490909090909,139.3170731707317h0v26.53658536585366h0Z" fill="#31b74c"/><path d="M0,139.3170731707317h210.3490909090909v26.53658536585366h-210.3490909090909Z" fill="#0f452d"/><path d="M69.46545454545455,172.4878048780488h16.879999999999995v26.53658536585366h-16.879999999999995Z" fill="#31b74c"/><path d="M0,172.4878048780488h69.46545454545455v26.53658536585366h-69.46545454545455Z" fill="#0f452d"/><path d="M55.61454545454545,205.65853658536585h0v26.53658536585366h0Z" fill="#31b74c"/><path d="M0,205.65853658536585h55.61454545454545v26.53658536585366h-55.61454545454545Z" fill="#0f452d"/><path d="M29.57818181818182,238.8292682926829h0v26.53658536585366h0Z" fill="#31b74c"/><path d="M0,238.8292682926829h29.57818181818182v26.53658536585366h-29.57818181818182Z" fill="#0f452d"/></g><g class="mark-text role-mark" role="graphics-object" aria-roledescription="text mark container"><text text-anchor="start" transform="translate(5,23.902439024390237)" font-family="Arial, sans-serif" font-size="12px" fill="#bfc6cc">robot-nm (33h)</text><text text-anchor="start" transform="translate(5,57.07317073170731)" font-family="Arial, sans-serif" font-size="12px" fill="#bfc6cc">onshape-robotics-toolkit (30h)</text><text text-anchor="start" transform="translate(5,90.24390243902438)" font-family="Arial, sans-serif" font-size="12px" fill="#bfc6cc">senthurayyappan (24h)</text><text text-anchor="start" transform="translate(5,123.41463414634146)" font-family="Arial, sans-serif" font-size="12px" fill="#bfc6cc">umv-codesign (22h)</text><text text-anchor="start" transform="translate(5,156.58536585365854)" font-family="Arial, sans-serif" font-size="12px" fill="#bfc6cc">ballbot-mujoco (16h)</text><text text-anchor="start" transform="translate(5,189.75609756097563)" font-family="Arial, sans-serif" font-size="12px" fill="#bfc6cc">neurobionicspi (7h)</text><text text-anchor="start" transform="translate(5,222.9268292682927)" font-family="Arial, sans-serif" font-size="12px" fill="#bfc6cc">onshape-api (4h)</text><text text-anchor="start" transform="translate(5,256.0975609756098)" font-family="Arial, sans-serif" font-size="12px" fill="#bfc6cc">readme-stats (2h)</text></g><g class="mark-group role-legend" role="graphics-symbol" aria-roledescription="legend" aria-label="Symbol legend for fill color with 2 values: last_7_days, all_time"><g transform="translate(0,307)"><path class="background" aria-hidden="true" d="M0,0h223v12h-223Z" pointer-events="none"/><g><g class="mark-group role-legend-entry"><g transform="translate(0,0)"><path class="background" aria-hidden="true" d="M0,0h0v0h0Z" pointer-events="none"/><g><g class="mark-group role-scope" role="graphics-object" aria-roledescription="group mark container"><g transform="translate(0,0)"><path class="background" aria-hidden="true" d="M0,0h121v12h-121Z" pointer-events="none" opacity="1"/><g><g class="mark-symbol role-legend-symbol" pointer-events="none"><path transform="translate(6,6)" d="M5,0A5,5,0,1,1,-5,0A5,5,0,1,1,5,0" fill="#31b74c" stroke-width="1.5" opacity="1"/></g><g class="mark-text role-legend-label" pointer-events="none"><text text-anchor="start" transform="translate(16,10)" font-family="Arial, sans-serif" font-size="12px" fill="#bfc6cc" opacity="1">last_7_days</text></g></g><path class="foreground" aria-hidden="true" d="" pointer-events="none" display="none"/></g><g transform="translate(131,0)"><path class="background" aria-hidden="true" d="M0,0h92v12h-92Z" pointer-events="none" opacity="1"/><g><g class="mark-symbol role-legend-symbol" pointer-events="none"><path transform="translate(6,6)" d="M5,0A5,5,0,1,1,-5,0A5,5,0,1,1,5,0" fill="#0f452d" stroke-width="1.5" opacity="1"/></g><g class="mark-text role-legend-label" pointer-events="none"><text text-anchor="start" transform="translate(16,10)" font-family="Arial, sans-serif" font-size="12px" fill="#bfc6cc" opacity="1">all_time</text></g></g><path class="foreground" aria-hidden="true" d="" pointer-events="none" display="none"/></g></g></g><path class="foreground" aria-hidden="true" d="" pointer-events="none" display="none"/></g></g></g><path class="foreground" aria-hidden="true" d="" pointer-events="none" display="none"/></g></g><g class="mark-group role-axis" role="graphics-symbol" aria-roledescription="axis" aria-label="X-axis for a linear scale with values from 0k to 110k"><g transform="translate(0.5,272.5)"><path class="background" aria-hidden="true" d="M0,0h0v0h0Z" pointer-events="none"/><g><g class="mark-rule role-axis-tick" pointer-events="none"><line transform="translate(0,0)" x2="0" y2="5" stroke="#3c444c" stroke-width="1" opacity="1"/><line transform="translate(36,0)" x2="0" y2="5" stroke="#3c444c" stroke-width="1" opacity="1"/><line transform="translate(73,0)" x2="0" y2="5" stroke="#3c444c" stroke-width="1" opacity="1"/><line transform="translate(109,0)" x2="0" y2="5" stroke="#3c444c" stroke-width="1" opacity="1"/><line transform="translate(145,0)" x2="0" y2="5" stroke="#3c444c" stroke-width="1" opacity="1"/><line transform="translate(182,0)" x2="0" y2="5" stroke="#3c444c" stroke-width="1" opacity="1"/><line transform="translate(218,0)" x2="0" y2="5" stroke="#3c444c" stroke-width="1" opacity="1"/><line transform="translate(255,0)" x2="0" y2="5" stroke="#3c444c" stroke-width="1" opacity="1"/><line transform="translate(291,0)" x2="0" y2="5" stroke="#3c444c" stroke-width="1" opacity="1"/><line transform="translate(327,0)" x2="0" y2="5" stroke="#3c444c" stroke-width="1" opacity="1"/><line transform="translate(364,0)" x2="0" y2="5" stroke="#3c444c" stroke-width="1" opacity="1"/><line transform="translate(400,0)" x2="0" y2="5" stroke="#3c444c" stroke-width="1" opacity="1"/></g><g class="mark-text role-axis-label" pointer-events="none"><text text-anchor="middle" transform="translate(0,15)" font-family="Arial, sans-serif" font-size="10px" fill="#3c444c" opacity="1">0h</text><text text-anchor="middle" transform="translate(36.36363636363637,15)" font-family="Arial, sans-serif" font-size="10px" fill="#3c444c" opacity="1">3h</text><text text-anchor="middle" transform="translate(72.72727272727273,15)" font-family="Arial, sans-serif" font-size="10px" fill="#3c444c" opacity="1">6h</text><text text-anchor="middle" transform="translate(109.09090909090908,15)" font-family="Arial, sans-serif" font-size="10px" fill="#3c444c" opacity="1">8h</text><text text-anchor="middle" transform="translate(145.45454545454547,15)" font-family="Arial, sans-serif" font-size="10px" fill="#3c444c" opacity="1">11h</text><text text-anchor="middle" transform="translate(181.8181818181818,15)" font-family="Arial, sans-serif" font-size="10px" fill="#3c444c" opacity="1">14h</text><text text-anchor="middle" transform="translate(218.18181818181816,15)" font-family="Arial, sans-serif" font-size="10px" fill="#3c444c" opacity="1">17h</text><text text-anchor="middle" transform="translate(254.54545454545453,15)" font-family="Arial, sans-serif" font-size="10px" fill="#3c444c" opacity="1">19h</text><text text-anchor="middle" transform="translate(290.90909090909093,15)" font-family="Arial, sans-serif" font-size="10px" fill="#3c444c" opacity="1">22h</text><text text-anchor="middle" transform="translate(327.2727272727273,15)" font-family="Arial, sans-serif" font-size="10px" fill="#3c444c" opacity="1">25h</text><text text-anchor="middle" transform="translate(363.6363636363636,15)" font-family="Arial, sans-serif" font-size="10px" fill="#3c444c" opacity="1">28h</text><text text-anchor="middle" transform="translate(400,15)" font-family="Arial, sans-serif" font-size="10px" fill="#3c444c" opacity="1">31h</text></g><g class="mark-rule role-axis-domain" pointer-events="none"><line transform="translate(0,0)" x2="400" y2="0" stroke="#888" stroke-width="1" opacity="1"/></g></g><path class="foreground" aria-hidden="true" d="" pointer-events="none" display="none"/></g></g></g><path class="foreground" aria-hidden="true" d="" display="none"/></g></g></g></svg>