<svg xmlns="http://www.w3.org/2000/svg" xmlns:xlink="http://www.w3.org/1999/xlink" version="1.1" class="marks" width="400" height="400" viewBox="0 0 400 400"><g fill="none" stroke-miterlimit="10" transform="translate(60,60)"><g class="mark-group role-frame root" role="graphics-object" aria-roledescription="group mark container"><g transform="translate(140,140)"><path class="background" aria-hidden="true" d="M0,0h280v280h-280Z"/><g><g class="mark-rule role-mark radial-grid" role="graphics-symbol" aria-roledescription="rule mark container"><line transform="translate(0,0)" x2="-129.34313455158014" y2="-53.57568053111258" stroke="gray" stroke-width="1"/><line transform="translate(0,0)" x2="-53.57568053111256" y2="-129.34313455158014" stroke="gray" stroke-width="1"/><line transform="translate(0,0)" x2="53.575680531112575" y2="-129.34313455158014" stroke="gray" stroke-width="1"/><line transform="translate(0,0)" x2="129.34313455158014" y2="-53.57568053111257" stroke="gray" stroke-width="1"/><line transform="translate(0,0)" x2="129.34313455158014" y2="53.57568053111257" stroke="gray" stroke-width="1"/><line transform="translate(0,0)" x2="53.575680531112575" y2="129.34313455158014" stroke="gray" stroke-width="1"/><line transform="translate(0,0)" x2="-53.57568053111256" y2="129.34313455158014" stroke="gray" stroke-width="1"/><line transform="translate(0,0)" x2="-129.34313455158014" y2="53.57568053111258" stroke="gray" stroke-width="1"/></g><g class="mark-group role-scope categories" role="graphics-object" aria-roledescription="group mark container"><g transform="translate(0,0)"><path class="background" aria-hidden="true" d="M0,0h0v0h0Z"/><g><g class="mark-line role-mark category-line" role="graphics-symbol" aria-roledescription="line mark container"><path d="M-60.119,-24.902L-22.705,-54.816L18.087,-43.666L39.501,-16.362L29.076,12.044L4.94,11.925L-3.182,7.683L-4.087,1.693Z" fill="#0f452d" fill-opacity="0.6" stroke="#0f452d" stroke-width="2"/></g><g class="mark-symbol role-mark category-point" role="graphics-symbol" aria-roledescription="symbol mark container"><path transform="translate(-60.118688939574454,-24.90197631086113)" d="M3.536,0A3.536,3.536,0,1,1,-3.536,0A3.536,3.536,0,1,1,3.536,0" fill="#0f452d" stroke="white" stroke-width="1"/><path transform="translate(-22.705373409085503,-54.81562042295967)" d="M3.536,0A3.536,3.536,0,1,1,-3.536,0A3.536,3.536,0,1,1,3.536,0" fill="#0f452d" stroke="white" stroke-width="1"/><path transform="translate(18.087149747303606,-43.666242224613455)" d="M3.536,0A3.536,3.536,0,1,1,-3.536,0A3.536,3.536,0,1,1,3.536,0" fill="#0f452d" stroke="white" stroke-width="1"/><path transform="translate(39.501393292052576,-16.362012834201778)" d="M3.536,0A3.536,3.536,0,1,1,-3.536,0A3.536,3.536,0,1,1,3.536,0" fill="#0f452d" stroke="white" stroke-width="1"/><path transform="translate(29.076336647195216,12.043812983394107)" d="M3.536,0A3.536,3.536,0,1,1,-3.536,0A3.536,3.536,0,1,1,3.536,0" fill="#0f452d" stroke="white" stroke-width="1"/><path transform="translate(4.93967774496858,11.92543700565569)" d="M3.536,0A3.536,3.536,0,1,1,-3.536,0A3.536,3.536,0,1,1,3.536,0" fill="#0f452d" stroke="white" stroke-width="1"/><path transform="translate(-3.1823954235480865,7.682982192363861)" d="M3.536,0A3.536,3.536,0,1,1,-3.536,0A3.536,3.536,0,1,1,3.536,0" fill="#0f452d" stroke="white" stroke-width="1"/><path transform="translate(-4.087243051829933,1.6929915047831579)" d="M3.536,0A3.536,3.536,0,1,1,-3.536,0A3.536,3.536,0,1,1,3.536,0" fill="#0f452d" stroke="white" stroke-width="1"/></g><g class="mark-text role-mark value-text" role="graphics-object" aria-roledescription="text mark container"><text text-anchor="end" transform="translate(-65.11868893957445,-10.90197631086113)" font-family="Arial, sans-serif" font-size="12px" fill="#7c848c">23%</text><text text-anchor="end" transform="translate(-27.705373409085503,-40.81562042295967)" font-family="Arial, sans-serif" font-size="12px" fill="#7c848c">21%</text><text text-anchor="start" transform="translate(18.087149747303606,-29.666242224613455)" font-family="Arial, sans-serif" font-size="12px" fill="#7c848c">17%</text><text text-anchor="start" transform="translate(39.501393292052576,-2.362012834201778)" font-family="Arial, sans-serif" font-size="12px" fill="#7c848c">15%</text><text text-anchor="start" transform="translate(29.076336647195216,4.0438129833941066)" font-family="Arial, sans-serif" font-size="12px" fill="#7c848c">11%</text><text text-anchor="start" transform="translate(4.93967774496858,3.9254370056556898)" font-family="Arial, sans-serif" font-size="12px" fill="#7c848c"/><text text-anchor="end" transform="translate(-8.182395423548087,-0.3170178076361392)" font-family="Arial, sans-serif" font-size="12px" fill="#7c848c"/><text text-anchor="end" transform="translate(-9.087243051829933,-6.307008495216842)" font-family="Arial, sans-serif" font-size="12px" fill="#7c848c"/></g></g><path class="foreground" aria-hidden="true" d="" display="none"/></g><g transform="translate(0,0)"><path class="background" aria-hidden="true" d="M0,0h0v0h0Z"/><g><g class="mark-line role-mark category-line" role="graphics-symbol" aria-roledescription="line mark container"><path d="M-129.343,-53.576L-13.908,-33.577L0,0L0,0L0,0L7.811,18.858L0,0L0,0Z" fill="#31b74c" fill-opacity="0.6" stroke="#31b74c" stroke-width="2"/></g><g class="mark-symbol role-mark category-point" role="graphics-symbol" aria-roledescription="symbol mark container"><path transform="translate(-129.34313455158014,-53.57568053111258)" d="M3.536,0A3.536,3.536,0,1,1,-3.536,0A3.536,3.536,0,1,1,3.536,0" fill="#31b74c" stroke="white" stroke-width="1"/><path transform="translate(-13.908246665876822,-33.57747772959021)" d="M3.536,0A3.536,3.536,0,1,1,-3.536,0A3.536,3.536,0,1,1,3.536,0" fill="#31b74c" stroke="white" stroke-width="1"/><path transform="translate(0,0)" d="M3.536,0A3.536,3.536,0,1,1,-3.536,0A3.536,3.536,0,1,1,3.536,0" fill="#31b74c" stroke="white" stroke-width="1"/><path transform="translate(0,0)" d="M3.536,0A3.536,3.536,0,1,1,-3.536,0A3.536,3.536,0,1,1,3.536,0" fill="#31b74c" stroke="white" stroke-width="1"/><path transform="translate(0,0)" d="M3.536,0A3.536,3.536,0,1,1,-3.536,0A3.536,3.536,0,1,1,3.536,0" fill="#31b74c" stroke="white" stroke-width="1"/><path transform="translate(7.811334221436215,18.85822901762039)" d="M3.536,0A3.536,3.536,0,1,1,-3.536,0A3.536,3.536,0,1,1,3.536,0" fill="#31b74c" stroke="white" stroke-width="1"/><path transform="translate(0,0)" d="M3.536,0A3.536,3.536,0,1,1,-3.536,0A3.536,3.536,0,1,1,3.536,0" fill="#31b74c" stroke="white" stroke-width="1"/><path transform="translate(0,0)" d="M3.536,0A3.536,3.536,0,1,1,-3.536,0A3.536,3.536,0,1,1,3.536,0" fill="#31b74c" stroke="white" stroke-width="1"/></g><g class="mark-text role-mark value-text" role="graphics-object" aria-roledescription="text mark container"><text text-anchor="end" transform="translate(-134.34313455158014,-39.57568053111258)" font-family="Arial, sans-serif" font-size="12px" fill="#7c848c">76%</text><text text-anchor="end" transform="translate(-18.908246665876824,-19.577477729590207)" font-family="Arial, sans-serif" font-size="12px" fill="#7c848c">13%</text><text text-anchor="start" transform="translate(0,14)" font-family="Arial, sans-serif" font-size="12px" fill="#7c848c"/><text text-anchor="start" transform="translate(0,14)" font-family="Arial, sans-serif" font-size="12px" fill="#7c848c"/><text text-anchor="start" transform="translate(0,-8)" font-family="Arial, sans-serif" font-size="12px" fill="#7c848c"/><text text-anchor="start" transform="translate(7.811334221436215,10.858229017620388)" font-family="Arial, sans-serif" font-size="12px" fill="#7c848c">7%</text><text text-anchor="end" transform="translate(-5,-8)" font-family="Arial, sans-serif" font-size="12px" fill="#7c848c"/><text text-anchor="end" transform="translate(-5,-8)" font-family="Arial, sans-serif" font-size="12px" fill="#7c848c"/></g></g><path class="foreground" aria-hidden="true" d="" display="none"/></g></g><g class="mark-text role-mark key-label" role="graphics-object" aria-roledescription="text mark container"><text text-anchor="end" transform="translate(-143.20132753924943,-62.31593201658893)" font-family="Arial, sans-serif" font-size="12px" fill="#bfc6cc">robot-nm</text><text text-anchor="end" transform="translate(-59.31593201658891,-146.20132753924943)" font-family="Arial, sans-serif" font-size="12px" fill="#bfc6cc"><tspan>onshape</tspan><tspan x="0" dy="12">robotics</tspan><tspan x="0" dy="12">toolkit</tspan></text><text text-anchor="start" transform="translate(59.315932016588924,-146.20132753924943)" font-family="Arial, sans-serif" font-size="12px" fill="#bfc6cc"><tspan>senthurayy</tspan><tspan x="0" dy="12">appan</tspan></text><text text-anchor="start" transform="translate(143.20132753924943,-62.31593201658892)" font-family="Arial, sans-serif" font-size="12px" fill="#bfc6cc"><tspan>umv</tspan><tspan x="0" dy="12">codesign</tspan></text><text text-anchor="start" transform="translate(143.20132753924943,68.31593201658892)" font-family="Arial, sans-serif" font-size="12px" fill="#bfc6cc"><tspan>ballbot</tspan><tspan x="0" dy="12">mujoco</tspan></text><text text-anchor="start" transform="translate(59.315932016588924,152.20132753924943)" font-family="Arial, sans-serif" font-size="12px" fill="#bfc6cc"><tspan>neurobioni</tspan><tspan x="0" dy="12">cspi</tspan></text><text text-anchor="end" transform="translate(-59.31593201658891,152.20132753924943)" font-family="Arial, sans-serif" font-size="12px" fill="#bfc6cc"><tspan>onshape</tspan><tspan x="0" dy="12">api</tspan></text><text text-anchor="end" transform="translate(-143.20132753924943,68.31593201658893)" font-family="Arial, sans-serif" font-size="12px" fill="#bfc6cc"><tspan>readme</tspan><tspan x="0" dy="12">stats</tspan></text></g></g><path class="foreground" aria-hidden="true" d="" display="none"/></g></g></g></svg>