<svg xmlns="http://www.w3.org/2000/svg" xmlns:xlink="http://www.w3.org/1999/xlink" version="1.1" class="marks" width="916" height="529" viewBox="0 0 916 529"><g fill="none" stroke-miterlimit="10" transform="translate(72,46)"><g class="mark-group role-frame root" role="graphics-object" aria-roledescription="group mark container"><g transform="translate(0,0)"><path class="background" aria-hidden="true" d="M0,0h800v400h-800Z"/><g><g class="mark-group role-axis" role="graphics-symbol" aria-roledescription="axis" aria-label="X-axis titled 'Date' for a discrete scale with 14 values: 02-16, 02-17, 02-18, 02-19, 02-20, ending with 03-01"><g transform="translate(0.5,400.5)"><path class="background" aria-hidden="true" d="M0,0h0v0h0Z" pointer-events="none"/><g><g class="mark-rule role-axis-tick" pointer-events="none"><line transform="translate(0,0)" x2="0" y2="5" stroke="#888" stroke-width="1" opacity="1"/><line transform="translate(62,0)" x2="0" y2="5" stroke="#888" stroke-width="1" opacity="1"/><line transform="translate(123,0)" x2="0" y2="5" stroke="#888" stroke-width="1" opacity="1"/><line transform="translate(185,0)" x2="0" y2="5" stroke="#888" stroke-width="1" opacity="1"/><line transform="translate(246,0)" x2="0" y2="5" stroke="#888" stroke-width="1" opacity="1"/><line transform="translate(308,0)" x2="0" y2="5" stroke="#888" stroke-width="1" opacity="1"/><line transform="translate(369,0)" x2="0" y2="5" stroke="#888" stroke-width="1" opacity="1"/><line transform="translate(431,0)" x2="0" y2="5" stroke="#888" stroke-width="1" opacity="1"/><line transform="translate(492,0)" x2="0" y2="5" stroke="#888" stroke-width="1" opacity="1"/><line transform="translate(554,0)" x2="0" y2="5" stroke="#888" stroke-width="1" opacity="1"/><line transform="translate(615,0)" x2="0" y2="5" stroke="#888" stroke-width="1" opacity="1"/><line transform="translate(677,0)" x2="0" y2="5" stroke="#888" stroke-width="1" opacity="1"/><line transform="translate(738,0)" x2="0" y2="5" stroke="#888" stroke-width="1" opacity="1"/><line transform="translate(800,0)" x2="0" y2="5" stroke="#888" stroke-width="1" opacity="1"/></g><g class="mark-text role-axis-label" pointer-events="none"><text text-anchor="middle" transform="translate(0,16)" font-family="Arial, sans-serif" font-size="12px" fill="#3c444c" opacity="1">02-16</text><text text-anchor="middle" transform="translate(61.53846153846154,16)" font-family="Arial, sans-serif" font-size="12px" fill="#3c444c" opacity="1">02-17</text><text text-anchor="middle" transform="translate(123.07692307692308,16)" font-family="Arial, sans-serif" font-size="12px" fill="#3c444c" opacity="1">02-18</text><text text-anchor="middle" transform="translate(184.6153846153846,16)" font-family="Arial, sans-serif" font-size="12px" fill="#3c444c" opacity="1">02-19</text><text text-anchor="middle" transform="translate(246.15384615384616,16)" font-family="Arial, sans-serif" font-size="12px" fill="#3c444c" opacity="1">02-20</text><text text-anchor="middle" transform="translate(307.6923076923077,16)" font-family="Arial, sans-serif" font-size="12px" fill="#3c444c" opacity="1">02-21</text><text text-anchor="middle" transform="translate(369.2307692307692,16)" font-family="Arial, sans-serif" font-size="12px" fill="#3c444c" opacity="1">02-22</text><text text-anchor="middle" transform="translate(430.7692307692308,16)" font-family="Arial, sans-serif" font-size="12px" fill="#3c444c" opacity="1">02-23</text><text text-anchor="middle" transform="translate(492.3076923076923,16)" font-family="Arial, sans-serif" font-size="12px" fill="#3c444c" opacity="1">02-24</text><text text-anchor="middle" transform="translate(553.8461538461538,16)" font-family="Arial, sans-serif" font-size="12px" fill="#3c444c" opacity="1">02-25</text><text text-anchor="middle" transform="translate(615.3846153846154,16)" font-family="Arial, sans-serif" font-size="12px" fill="#3c444c" opacity="1">02-26</text><text text-anchor="middle" transform="translate(676.9230769230769,16)" font-family="Arial, sans-serif" font-size="12px" fill="#3c444c" opacity="1">02-27</text><text text-anchor="middle" transform="translate(738.4615384615385,16)" font-family="Arial, sans-serif" font-size="12px" fill="#3c444c" opacity="1">02-28</text><text text-anchor="middle" transform="translate(800,16)" font-family="Arial, sans-serif" font-size="12px" fill="#3c444c" opacity="1">03-01</text></g><g class="mark-rule role-axis-domain" pointer-events="none"><line transform="translate(0,0)" x2="800" y2="0" stroke="#888" stroke-width="1" opacity="1"/></g><g class="mark-text role-axis-title" pointer-events="none"><text text-anchor="middle" transform="translate(400,31)" font-family="Arial, sans-serif" font-size="12px" font-weight="bold" fill="#3c444c" opacity="1">Date</text></g></g><path class="foreground" aria-hidden="true" d="" pointer-events="none" display="none"/></g></g><g class="mark-group role-axis" role="graphics-symbol" aria-roledescription="axis" aria-label="Y-axis titled 'Views' for a linear scale with values from 0 to 260"><g transform="translate(0.5,0.5)"><path class="background" aria-hidden="true" d="M0,0h0v0h0Z" pointer-events="none"/><g><g class="mark-rule role-axis-tick" pointer-events="none"><line transform="translate(0,400)" x2="-5" y2="0" stroke="#888" stroke-width="1" opacity="1"/><line transform="translate(0,369)" x2="-5" y2="0" stroke="#888" stroke-width="1" opacity="1"/><line transform="translate(0,338)" x2="-5" y2="0" stroke="#888" stroke-width="1" opacity="1"/><line transform="translate(0,308)" x2="-5" y2="0" stroke="#888" stroke-width="1" opacity="1"/><line transform="translate(0,277)" x2="-5" y2="0" stroke="#888" stroke-width="1" opacity="1"/><line transform="translate(0,246)" x2="-5" y2="0" stroke="#888" stroke-width="1" opacity="1"/><line transform="translate(0,215)" x2="-5" y2="0" stroke="#888" stroke-width="1" opacity="1"/><line transform="translate(0,185)" x2="-5" y2="0" stroke="#888" stroke-width="1" opacity="1"/><line transform="translate(0,154)" x2="-5" y2="0" stroke="#888" stroke-width="1" opacity="1"/><line transform="translate(0,123)" x2="-5" y2="0" stroke="#888" stroke-width="1" opacity="1"/><line transform="translate(0,92)" x2="-5" y2="0" stroke="#888" stroke-width="1" opacity="1"/><line transform="translate(0,62)" x2="-5" y2="0" stroke="#888" stroke-width="1" opacity="1"/><line transform="translate(0,31)" x2="-5" y2="0" stroke="#888" stroke-width="1" opacity="1"/><line transform="translate(0,0)" x2="-5" y2="0" stroke="#888" stroke-width="1" opacity="1"/></g><g class="mark-text role-axis-label" pointer-events="none"><text text-anchor="end" transform="translate(-7,404)" font-family="Arial, sans-serif" font-size="12px" fill="#3c444c" opacity="1">0</text><text text-anchor="end" transform="translate(-7,373.2307692307692)" font-family="Arial, sans-serif" font-size="12px" fill="#3c444c" opacity="1">20</text><text text-anchor="end" transform="translate(-7,342.46153846153845)" font-family="Arial, sans-serif" font-size="12px" fill="#3c444c" opacity="1">40</text><text text-anchor="end" transform="translate(-7,311.6923076923077)" font-family="Arial, sans-serif" font-size="12px" fill="#3c444c" opacity="1">60</text><text text-anchor="end" transform="translate(-7,280.9230769230769)" font-family="Arial, sans-serif" font-size="12px" fill="#3c444c" opacity="1">80</text><text text-anchor="end" transform="translate(-7,250.15384615384616)" font-family="Arial, sans-serif" font-size="12px" fill="#3c444c" opacity="1">100</text><text text-anchor="end" transform="translate(-7,219.3846153846154)" font-family="Arial, sans-serif" font-size="12px" fill="#3c444c" opacity="1">120</text><text text-anchor="end" transform="translate(-7,188.6153846153846)" font-family="Arial, sans-serif" font-size="12px" fill="#3c444c" opacity="1">140</text><text text-anchor="end" transform="translate(-7,157.84615384615384)" font-family="Arial, sans-serif" font-size="12px" fill="#3c444c" opacity="1">160</text><text text-anchor="end" transform="translate(-7,127.07692307692308)" font-family="Arial, sans-serif" font-size="12px" fill="#3c444c" opacity="1">180</text><text text-anchor="end" transform="translate(-7,96.30769230769229)" font-family="Arial, sans-serif" font-size="12px" fill="#3c444c" opacity="1">200</text><text text-anchor="end" transform="translate(-7,65.53846153846155)" font-family="Arial, sans-serif" font-size="12px" fill="#3c444c" opacity="1">220</text><text text-anchor="end" transform="translate(-7,34.769230769230745)" font-family="Arial, sans-serif" font-size="12px" fill="#3c444c" opacity="1">240</text><text text-anchor="end" transform="translate(-7,4)" font-family="Arial, sans-serif" font-size="12px" fill="#3c444c" opacity="1">260</text></g><g class="mark-rule role-axis-domain" pointer-events="none"><line transform="translate(0,400)" x2="0" y2="-400" stroke="#888" stroke-width="1" opacity="1"/></g><g class="mark-text role-axis-title" pointer-events="none"><text text-anchor="middle" transform="translate(-39,200) rotate(-90) translate(0,-3)" font-family="Arial, sans-serif" font-size="12px" font-weight="bold" fill="#3c444c" opacity="1">Views</text></g></g><path class="foreground" aria-hidden="true" d="" pointer-events="none" display="none"/></g></g><g class="mark-group role-scope" role="graphics-object" aria-roledescription="group mark container"><g transform="translate(0,0)"><path class="background" aria-hidden="true" d="M0,0h0v0h0Z"/><g><g class="mark-line role-mark" role="graphics-symbol" aria-roledescription="line mark container"><path d="M0,395.385C20.513,389.359,41.026,383.333,61.538,378.462C82.051,373.59,102.564,368.205,123.077,366.154C143.59,364.103,164.103,363.077,184.615,363.077C205.128,363.077,225.641,383.077,246.154,383.077C266.667,383.077,287.179,376.923,307.692,376.923C328.205,376.923,348.718,384.103,369.231,387.692C389.744,391.282,410.256,398.462,430.769,398.462C451.282,398.462,471.795,27.692,492.308,27.692C512.821,27.692,533.333,303.077,553.846,303.077C574.359,303.077,594.872,289.231,615.385,289.231C635.897,289.231,656.41,341.026,676.923,355.385C697.436,369.744,717.949,370.256,738.462,376.923C758.974,383.59,779.487,389.487,800,395.385" stroke="rgb(67, 165, 201)" stroke-width="2"/></g><g class="mark-text role-mark" role="graphics-object" aria-roledescription="text mark container"><text text-anchor="middle" transform="translate(0,385.3846153846154)" font-family="sans-serif" font-size="10px" fill="#888888">3</text><text text-anchor="middle" transform="translate(61.53846153846154,368.46153846153845)" font-family="sans-serif" font-size="10px" fill="#888888">14</text><text text-anchor="middle" transform="translate(123.07692307692308,356.15384615384613)" font-family="sans-serif" font-size="10px" fill="#888888">22</text><text text-anchor="middle" transform="translate(184.6153846153846,353.0769230769231)" font-family="sans-serif" font-size="10px" fill="#888888">24</text><text text-anchor="middle" transform="translate(246.15384615384616,373.0769230769231)" font-family="sans-serif" font-size="10px" fill="#888888">11</text><text text-anchor="middle" transform="translate(307.6923076923077,366.9230769230769)" font-family="sans-serif" font-size="10px" fill="#888888">15</text><text text-anchor="middle" transform="translate(369.2307692307692,377.6923076923077)" font-family="sans-serif" font-size="10px" fill="#888888">8</text><text text-anchor="middle" transform="translate(430.7692307692308,388.46153846153845)" font-family="sans-serif" font-size="10px" fill="#888888">1</text><text text-anchor="middle" transform="translate(492.3076923076923,17.692307692307683)" font-family="sans-serif" font-size="10px" fill="#888888">242</text><text text-anchor="middle" transform="translate(553.8461538461538,293.0769230769231)" font-family="sans-serif" font-size="10px" fill="#888888">63</text><text text-anchor="middle" transform="translate(615.3846153846154,279.2307692307692)" font-family="sans-serif" font-size="10px" fill="#888888">72</text><text text-anchor="middle" transform="translate(676.9230769230769,345.38461538461536)" font-family="sans-serif" font-size="10px" fill="#888888">29</text><text text-anchor="middle" transform="translate(738.4615384615385,366.9230769230769)" font-family="sans-serif" font-size="10px" fill="#888888">15</text><text text-anchor="middle" transform="translate(800,385.3846153846154)" font-family="sans-serif" font-size="10px" fill="#888888">3</text></g></g><path class="foreground" aria-hidden="true" d="" display="none"/></g><g transform="translate(0,0)"><path class="background" aria-hidden="true" d="M0,0h0v0h0Z"/><g><g class="mark-line role-mark" role="graphics-symbol" aria-roledescription="line mark container"><path d="M0,335.385C20.513,330.769,41.026,326.154,61.538,307.692C82.051,289.231,102.564,169.231,123.077,169.231C143.59,169.231,164.103,274.872,184.615,292.308C205.128,309.744,225.641,310.513,246.154,318.462C266.667,326.41,287.179,340,307.692,340C328.205,340,348.718,338.462,369.231,335.385C389.744,332.308,410.256,307.949,430.769,300C451.282,292.051,471.795,287.692,492.308,287.692C512.821,287.692,533.333,324.615,553.846,324.615C574.359,324.615,594.872,324.615,615.385,324.615C635.897,324.615,656.41,316.923,676.923,316.923C697.436,316.923,717.949,322.051,738.462,332.308C758.974,342.564,779.487,365.897,800,389.231" stroke="rgb(147, 213, 189)" stroke-width="2"/></g><g class="mark-text role-mark" role="graphics-object" aria-roledescription="text mark container"><text text-anchor="middle" transform="translate(0,325.3846153846154)" font-family="sans-serif" font-size="10px" fill="#888888">42</text><text text-anchor="middle" transform="translate(61.53846153846154,297.6923076923077)" font-family="sans-serif" font-size="10px" fill="#888888">60</text><text text-anchor="middle" transform="translate(123.07692307692308,159.23076923076925)" font-family="sans-serif" font-size="10px" fill="#888888">150</text><text text-anchor="middle" transform="translate(184.6153846153846,282.3076923076923)" font-family="sans-serif" font-size="10px" fill="#888888">70</text><text text-anchor="middle" transform="translate(246.15384615384616,308.4615384615385)" font-family="sans-serif" font-size="10px" fill="#888888">53</text><text text-anchor="middle" transform="translate(307.6923076923077,330)" font-family="sans-serif" font-size="10px" fill="#888888">39</text><text text-anchor="middle" transform="translate(369.2307692307692,325.3846153846154)" font-family="sans-serif" font-size="10px" fill="#888888">42</text><text text-anchor="middle" transform="translate(430.7692307692308,290)" font-family="sans-serif" font-size="10px" fill="#888888">65</text><text text-anchor="middle" transform="translate(492.3076923076923,277.6923076923077)" font-family="sans-serif" font-size="10px" fill="#888888">73</text><text text-anchor="middle" transform="translate(553.8461538461538,314.61538461538464)" font-family="sans-serif" font-size="10px" fill="#888888">49</text><text text-anchor="middle" transform="translate(615.3846153846154,314.61538461538464)" font-family="sans-serif" font-size="10px" fill="#888888">49</text><text text-anchor="middle" transform="translate(676.9230769230769,306.9230769230769)" font-family="sans-serif" font-size="10px" fill="#888888">54</text><text text-anchor="middle" transform="translate(738.4615384615385,322.30769230769226)" font-family="sans-serif" font-size="10px" fill="#888888">44</text><text text-anchor="middle" transform="translate(800,379.2307692307692)" font-family="sans-serif" font-size="10px" fill="#888888">7</text></g></g><path class="foreground" aria-hidden="true" d="" display="none"/></g><g transform="translate(0,0)"><path class="background" aria-hidden="true" d="M0,0h0v0h0Z"/><g><g class="mark-line role-mark" role="graphics-symbol" aria-roledescription="line mark container"><path d="M0,376.923C20.513,370.769,41.026,364.615,61.538,364.615C82.051,364.615,102.564,390.256,123.077,392.308C143.59,394.359,164.103,395.385,184.615,395.385C205.128,395.385,225.641,395.385,246.154,395.385C266.667,395.385,287.179,383.077,307.692,383.077C328.205,383.077,348.718,383.077,369.231,383.077C389.744,383.077,410.256,390.769,430.769,390.769C451.282,390.769,471.795,387.692,492.308,387.692C512.821,387.692,533.333,387.692,553.846,387.692C574.359,387.692,594.872,391.282,615.385,392.308C635.897,393.333,656.41,392.821,676.923,393.846C697.436,394.872,717.949,398.462,738.462,398.462C758.974,398.462,779.487,398.462,800,398.462" stroke="rgb(34, 131, 185)" stroke-width="2"/></g><g class="mark-text role-mark" role="graphics-object" aria-roledescription="text mark container"><text text-anchor="middle" transform="translate(0,366.9230769230769)" font-family="sans-serif" font-size="10px" fill="#888888">15</text><text text-anchor="middle" transform="translate(61.53846153846154,354.6153846153846)" font-family="sans-serif" font-size="10px" fill="#888888">23</text><text text-anchor="middle" transform="translate(123.07692307692308,382.30769230769226)" font-family="sans-serif" font-size="10px" fill="#888888">5</text><text text-anchor="middle" transform="translate(184.6153846153846,385.3846153846154)" font-family="sans-serif" font-size="10px" fill="#888888">3</text><text text-anchor="middle" transform="translate(246.15384615384616,385.3846153846154)" font-family="sans-serif" font-size="10px" fill="#888888">3</text><text text-anchor="middle" transform="translate(307.6923076923077,373.0769230769231)" font-family="sans-serif" font-size="10px" fill="#888888">11</text><text text-anchor="middle" transform="translate(369.2307692307692,373.0769230769231)" font-family="sans-serif" font-size="10px" fill="#888888">11</text><text text-anchor="middle" transform="translate(430.7692307692308,380.7692307692308)" font-family="sans-serif" font-size="10px" fill="#888888">6</text><text text-anchor="middle" transform="translate(492.3076923076923,377.6923076923077)" font-family="sans-serif" font-size="10px" fill="#888888">8</text><text text-anchor="middle" transform="translate(553.8461538461538,377.6923076923077)" font-family="sans-serif" font-size="10px" fill="#888888">8</text><text text-anchor="middle" transform="translate(615.3846153846154,382.30769230769226)" font-family="sans-serif" font-size="10px" fill="#888888">5</text><text text-anchor="middle" transform="translate(676.9230769230769,383.84615384615387)" font-family="sans-serif" font-size="10px" fill="#888888">4</text><text text-anchor="middle" transform="translate(738.4615384615385,388.46153846153845)" font-family="sans-serif" font-size="10px" fill="#888888">1</text><text text-anchor="middle" transform="translate(800,388.46153846153845)" font-family="sans-serif" font-size="10px" fill="#888888">1</text></g></g><path class="foreground" aria-hidden="true" d="" display="none"/></g><g transform="translate(0,0)"><path class="background" aria-hidden="true" d="M0,0h0v0h0Z"/><g><g class="mark-line role-mark" role="graphics-symbol" aria-roledescription="line mark container"><path d="M0,400C20.513,372.308,41.026,344.615,61.538,344.615C82.051,344.615,102.564,387.692,123.077,387.692C143.59,387.692,164.103,320,184.615,320C205.128,320,225.641,384.615,246.154,384.615C266.667,384.615,287.179,284.615,307.692,284.615C328.205,284.615,348.718,395.385,369.231,395.385C389.744,395.385,410.256,337.949,430.769,287.692C451.282,237.436,471.795,93.846,492.308,93.846C512.821,93.846,533.333,261.538,553.846,261.538C574.359,261.538,594.872,163.077,615.385,163.077C635.897,163.077,656.41,380,676.923,380C697.436,380,717.949,335.385,738.462,335.385C758.974,335.385,779.487,367.692,800,400" stroke="rgb(105, 194, 202)" stroke-width="2"/></g><g class="mark-text role-mark" role="graphics-object" aria-roledescription="text mark container"><text text-anchor="middle" transform="translate(0,390)" font-family="sans-serif" font-size="10px" fill="#888888">0</text><text text-anchor="middle" transform="translate(61.53846153846154,334.61538461538464)" font-family="sans-serif" font-size="10px" fill="#888888">36</text><text text-anchor="middle" transform="translate(123.07692307692308,377.6923076923077)" font-family="sans-serif" font-size="10px" fill="#888888">8</text><text text-anchor="middle" transform="translate(184.6153846153846,310)" font-family="sans-serif" font-size="10px" fill="#888888">52</text><text text-anchor="middle" transform="translate(246.15384615384616,374.61538461538464)" font-family="sans-serif" font-size="10px" fill="#888888">10</text><text text-anchor="middle" transform="translate(307.6923076923077,274.61538461538464)" font-family="sans-serif" font-size="10px" fill="#888888">75</text><text text-anchor="middle" transform="translate(369.2307692307692,385.3846153846154)" font-family="sans-serif" font-size="10px" fill="#888888">3</text><text text-anchor="middle" transform="translate(430.7692307692308,277.6923076923077)" font-family="sans-serif" font-size="10px" fill="#888888">73</text><text text-anchor="middle" transform="translate(492.3076923076923,83.84615384615387)" font-family="sans-serif" font-size="10px" fill="#888888">199</text><text text-anchor="middle" transform="translate(553.8461538461538,251.53846153846155)" font-family="sans-serif" font-size="10px" fill="#888888">90</text><text text-anchor="middle" transform="translate(615.3846153846154,153.07692307692307)" font-family="sans-serif" font-size="10px" fill="#888888">154</text><text text-anchor="middle" transform="translate(676.9230769230769,370)" font-family="sans-serif" font-size="10px" fill="#888888">13</text><text text-anchor="middle" transform="translate(738.4615384615385,325.3846153846154)" font-family="sans-serif" font-size="10px" fill="#888888">42</text><text text-anchor="middle" transform="translate(800,390)" font-family="sans-serif" font-size="10px" fill="#888888">0</text></g></g><path class="foreground" aria-hidden="true" d="" display="none"/></g><g transform="translate(0,0)"><path class="background" aria-hidden="true" d="M0,0h0v0h0Z"/><g><g class="mark-line role-mark" role="graphics-symbol" aria-roledescription="line mark container"><path d="M0,376.923C20.513,363.846,41.026,350.769,61.538,326.154C82.051,301.538,102.564,229.231,123.077,229.231C143.59,229.231,164.103,315.385,184.615,315.385C205.128,315.385,225.641,184.615,246.154,184.615C266.667,184.615,287.179,223.333,307.692,244.615C328.205,265.897,348.718,297.949,369.231,312.308C389.744,326.667,410.256,333.846,430.769,333.846C451.282,333.846,471.795,210.769,492.308,210.769C512.821,210.769,533.333,360,553.846,360C574.359,360,594.872,301.538,615.385,301.538C635.897,301.538,656.41,306.667,676.923,316.923C697.436,327.179,717.949,360,738.462,369.231C758.974,378.462,779.487,380.769,800,383.077" stroke="rgb(184, 227, 190)" stroke-width="2"/></g><g class="mark-text role-mark" role="graphics-object" aria-roledescription="text mark container"><text text-anchor="middle" transform="translate(0,366.9230769230769)" font-family="sans-serif" font-size="10px" fill="#888888">15</text><text text-anchor="middle" transform="translate(61.53846153846154,316.15384615384613)" font-family="sans-serif" font-size="10px" fill="#888888">48</text><text text-anchor="middle" transform="translate(123.07692307692308,219.23076923076923)" font-family="sans-serif" font-size="10px" fill="#888888">111</text><text text-anchor="middle" transform="translate(184.6153846153846,305.38461538461536)" font-family="sans-serif" font-size="10px" fill="#888888">55</text><text text-anchor="middle" transform="translate(246.15384615384616,174.6153846153846)" font-family="sans-serif" font-size="10px" fill="#888888">140</text><text text-anchor="middle" transform="translate(307.6923076923077,234.61538461538464)" font-family="sans-serif" font-size="10px" fill="#888888">101</text><text text-anchor="middle" transform="translate(369.2307692307692,302.3076923076923)" font-family="sans-serif" font-size="10px" fill="#888888">57</text><text text-anchor="middle" transform="translate(430.7692307692308,323.84615384615387)" font-family="sans-serif" font-size="10px" fill="#888888">43</text><text text-anchor="middle" transform="translate(492.3076923076923,200.76923076923077)" font-family="sans-serif" font-size="10px" fill="#888888">123</text><text text-anchor="middle" transform="translate(553.8461538461538,350)" font-family="sans-serif" font-size="10px" fill="#888888">26</text><text text-anchor="middle" transform="translate(615.3846153846154,291.53846153846155)" font-family="sans-serif" font-size="10px" fill="#888888">64</text><text text-anchor="middle" transform="translate(676.9230769230769,306.9230769230769)" font-family="sans-serif" font-size="10px" fill="#888888">54</text><text text-anchor="middle" transform="translate(738.4615384615385,359.2307692307692)" font-family="sans-serif" font-size="10px" fill="#888888">20</text><text text-anchor="middle" transform="translate(800,373.0769230769231)" font-family="sans-serif" font-size="10px" fill="#888888">11</text></g></g><path class="foreground" aria-hidden="true" d="" display="none"/></g></g><g class="mark-group role-legend" role="graphics-symbol" aria-roledescription="legend" aria-label="Symbol legend for fill color with 5 values: TMotorCANControl, onshape-robotics-toolkit, opensourceleg, robot-ci, anton"><g transform="translate(0,451)"><path class="background" aria-hidden="true" d="M0,0h674v12h-674Z" pointer-events="none"/><g><g class="mark-group role-legend-entry"><g transform="translate(0,0)"><path class="background" aria-hidden="true" d="M0,0h0v0h0Z" pointer-events="none"/><g><g class="mark-group role-scope" role="graphics-object" aria-roledescription="group mark container"><g transform="translate(0,0)"><path class="background" aria-hidden="true" d="M0,0h169v12h-169Z" pointer-events="none" opacity="1"/><g><g class="mark-symbol role-legend-symbol" pointer-events="none"><path transform="translate(6,6)" d="M5,0A5,5,0,1,1,-5,0A5,5,0,1,1,5,0" fill="rgb(184, 227, 190)" stroke-width="1.5" opacity="1"/></g><g class="mark-text role-legend-label" pointer-events="none"><text text-anchor="start" transform="translate(16,10)" font-family="Arial, sans-serif" font-size="12px" fill="#bfc6cc" opacity="1">TMotorCANControl</text></g></g><path class="foreground" aria-hidden="true" d="" pointer-events="none" display="none"/></g><g transform="translate(179,0)"><path class="background" aria-hidden="true" d="M0,0h169v12h-169Z" pointer-events="none" opacity="1"/><g><g class="mark-symbol role-legend-symbol" pointer-events="none"><path transform="translate(6,6)" d="M5,0A5,5,0,1,1,-5,0A5,5,0,1,1,5,0" fill="rgb(147, 213, 189)" stroke-width="1.5" opacity="1"/></g><g class="mark-text role-legend-label" pointer-events="none"><text text-anchor="start" transform="translate(16,10)" font-family="Arial, sans-serif" font-size="12px" fill="#bfc6cc" opacity="1">onshape-robotic…</text></g></g><path class="foreground" aria-hidden="true" d="" pointer-events="none" display="none"/></g><g transform="translate(358,0)"><path class="background" aria-hidden="true" d="M0,0h140v12h-140Z" pointer-events="none" opacity="1"/><g><g class="mark-symbol role-legend-symbol" pointer-events="none"><path transform="translate(6,6)" d="M5,0A5,5,0,1,1,-5,0A5,5,0,1,1,5,0" fill="rgb(105, 194, 202)" stroke-width="1.5" opacity="1"/></g><g class="mark-text role-legend-label" pointer-events="none"><text text-anchor="start" transform="translate(16,10)" font-family="Arial, sans-serif" font-size="12px" fill="#bfc6cc" opacity="1">opensourceleg</text></g></g><path class="foreground" aria-hidden="true" d="" pointer-events="none" display="none"/></g><g transform="translate(508,0)"><path class="background" aria-hidden="true" d="M0,0h92v12h-92Z" pointer-events="none" opacity="1"/><g><g class="mark-symbol role-legend-symbol" pointer-events="none"><path transform="translate(6,6)" d="M5,0A5,5,0,1,1,-5,0A5,5,0,1,1,5,0" fill="rgb(67, 165, 201)" stroke-width="1.5" opacity="1"/></g><g class="mark-text role-legend-label" pointer-events="none"><text text-anchor="start" transform="translate(16,10)" font-family="Arial, sans-serif" font-size="12px" fill="#bfc6cc" opacity="1">robot-ci</text></g></g><path class="foreground" aria-hidden="true" d="" pointer-events="none" display="none"/></g><g transform="translate(610,0)"><path class="background" aria-hidden="true" d="M0,0h64v12h-64Z" pointer-events="none" opacity="1"/><g><g class="mark-symbol role-legend-symbol" pointer-events="none"><path transform="translate(6,6)" d="M5,0A5,5,0,1,1,-5,0A5,5,0,1,1,5,0" fill="rgb(34, 131, 185)" stroke-width="1.5" opacity="1"/></g><g class="mark-text role-legend-label" pointer-events="none"><text text-anchor="start" transform="translate(16,10)" font-family="Arial, sans-serif" font-size="12px" fill="#bfc6cc" opacity="1">anton</text></g></g><path class="foreground" aria-hidden="true" d="" pointer-events="none" display="none"/></g></g></g><path class="foreground" aria-hidden="true" d="" pointer-events="none" display="none"/></g></g></g><path class="foreground" aria-hidden="true" d="" pointer-events="none" display="none"/></g></g><g class="mark-group role-title"><g transform="translate(386,-26)"><path class="background" aria-hidden="true" d="M0,0h0v0h0Z" pointer-events="none"/><g><g class="mark-text role-title-text" role="graphics-symbol" aria-roledescription="title" aria-label="Title text 'Repository Views Over Time'" pointer-events="none"><text text-anchor="middle" transform="translate(0,13)" font-family="Arial, sans-serif" font-size="16px" font-weight="bold" fill="#bfc6cc" opacity="1">Repository Views Over Time</text></g></g><path class="foreground" aria-hidden="true" d="" pointer-events="none" display="none"/></g></g></g><path class="foreground" aria-hidden="true" d="" display="none"/></g></g></g></svg>