<svg xmlns="http://www.w3.org/2000/svg" xmlns:xlink="http://www.w3.org/1999/xlink" version="1.1" class="marks" width="916" height="529" viewBox="0 0 916 529"><g fill="none" stroke-miterlimit="10" transform="translate(72,46)"><g class="mark-group role-frame root" role="graphics-object" aria-roledescription="group mark container"><g transform="translate(0,0)"><path class="background" aria-hidden="true" d="M0,0h800v400h-800Z"/><g><g class="mark-group role-axis" role="graphics-symbol" aria-roledescription="axis" aria-label="X-axis titled 'Date' for a discrete scale with 14 values: 01-23, 01-24, 01-25, 01-26, 01-27, ending with 02-05"><g transform="translate(0.5,400.5)"><path class="background" aria-hidden="true" d="M0,0h0v0h0Z" pointer-events="none"/><g><g class="mark-rule role-axis-tick" pointer-events="none"><line transform="translate(0,0)" x2="0" y2="5" stroke="#888" stroke-width="1" opacity="1"/><line transform="translate(62,0)" x2="0" y2="5" stroke="#888" stroke-width="1" opacity="1"/><line transform="translate(123,0)" x2="0" y2="5" stroke="#888" stroke-width="1" opacity="1"/><line transform="translate(185,0)" x2="0" y2="5" stroke="#888" stroke-width="1" opacity="1"/><line transform="translate(246,0)" x2="0" y2="5" stroke="#888" stroke-width="1" opacity="1"/><line transform="translate(308,0)" x2="0" y2="5" stroke="#888" stroke-width="1" opacity="1"/><line transform="translate(369,0)" x2="0" y2="5" stroke="#888" stroke-width="1" opacity="1"/><line transform="translate(431,0)" x2="0" y2="5" stroke="#888" stroke-width="1" opacity="1"/><line transform="translate(492,0)" x2="0" y2="5" stroke="#888" stroke-width="1" opacity="1"/><line transform="translate(554,0)" x2="0" y2="5" stroke="#888" stroke-width="1" opacity="1"/><line transform="translate(615,0)" x2="0" y2="5" stroke="#888" stroke-width="1" opacity="1"/><line transform="translate(677,0)" x2="0" y2="5" stroke="#888" stroke-width="1" opacity="1"/><line transform="translate(738,0)" x2="0" y2="5" stroke="#888" stroke-width="1" opacity="1"/><line transform="translate(800,0)" x2="0" y2="5" stroke="#888" stroke-width="1" opacity="1"/></g><g class="mark-text role-axis-label" pointer-events="none"><text text-anchor="middle" transform="translate(0,16)" font-family="Arial, sans-serif" font-size="12px" fill="#3c444c" opacity="1">01-23</text><text text-anchor="middle" transform="translate(61.53846153846154,16)" font-family="Arial, sans-serif" font-size="12px" fill="#3c444c" opacity="1">01-24</text><text text-anchor="middle" transform="translate(123.07692307692308,16)" font-family="Arial, sans-serif" font-size="12px" fill="#3c444c" opacity="1">01-25</text><text text-anchor="middle" transform="translate(184.6153846153846,16)" font-family="Arial, sans-serif" font-size="12px" fill="#3c444c" opacity="1">01-26</text><text text-anchor="middle" transform="translate(246.15384615384616,16)" font-family="Arial, sans-serif" font-size="12px" fill="#3c444c" opacity="1">01-27</text><text text-anchor="middle" transform="translate(307.6923076923077,16)" font-family="Arial, sans-serif" font-size="12px" fill="#3c444c" opacity="1">01-28</text><text text-anchor="middle" transform="translate(369.2307692307692,16)" font-family="Arial, sans-serif" font-size="12px" fill="#3c444c" opacity="1">01-29</text><text text-anchor="middle" transform="translate(430.7692307692308,16)" font-family="Arial, sans-serif" font-size="12px" fill="#3c444c" opacity="1">01-30</text><text text-anchor="middle" transform="translate(492.3076923076923,16)" font-family="Arial, sans-serif" font-size="12px" fill="#3c444c" opacity="1">01-31</text><text text-anchor="middle" transform="translate(553.8461538461538,16)" font-family="Arial, sans-serif" font-size="12px" fill="#3c444c" opacity="1">02-01</text><text text-anchor="middle" transform="translate(615.3846153846154,16)" font-family="Arial, sans-serif" font-size="12px" fill="#3c444c" opacity="1">02-02</text><text text-anchor="middle" transform="translate(676.9230769230769,16)" font-family="Arial, sans-serif" font-size="12px" fill="#3c444c" opacity="1">02-03</text><text text-anchor="middle" transform="translate(738.4615384615385,16)" font-family="Arial, sans-serif" font-size="12px" fill="#3c444c" opacity="1">02-04</text><text text-anchor="middle" transform="translate(800,16)" font-family="Arial, sans-serif" font-size="12px" fill="#3c444c" opacity="1">02-05</text></g><g class="mark-rule role-axis-domain" pointer-events="none"><line transform="translate(0,0)" x2="800" y2="0" stroke="#888" stroke-width="1" opacity="1"/></g><g class="mark-text role-axis-title" pointer-events="none"><text text-anchor="middle" transform="translate(400,31)" font-family="Arial, sans-serif" font-size="12px" font-weight="bold" fill="#3c444c" opacity="1">Date</text></g></g><path class="foreground" aria-hidden="true" d="" pointer-events="none" display="none"/></g></g><g class="mark-group role-axis" role="graphics-symbol" aria-roledescription="axis" aria-label="Y-axis titled 'Views' for a linear scale with values from 0 to 450"><g transform="translate(0.5,0.5)"><path class="background" aria-hidden="true" d="M0,0h0v0h0Z" pointer-events="none"/><g><g class="mark-rule role-axis-tick" pointer-events="none"><line transform="translate(0,400)" x2="-5" y2="0" stroke="#888" stroke-width="1" opacity="1"/><line transform="translate(0,356)" x2="-5" y2="0" stroke="#888" stroke-width="1" opacity="1"/><line transform="translate(0,311)" x2="-5" y2="0" stroke="#888" stroke-width="1" opacity="1"/><line transform="translate(0,267)" x2="-5" y2="0" stroke="#888" stroke-width="1" opacity="1"/><line transform="translate(0,222)" x2="-5" y2="0" stroke="#888" stroke-width="1" opacity="1"/><line transform="translate(0,178)" x2="-5" y2="0" stroke="#888" stroke-width="1" opacity="1"/><line transform="translate(0,133)" x2="-5" y2="0" stroke="#888" stroke-width="1" opacity="1"/><line transform="translate(0,89)" x2="-5" y2="0" stroke="#888" stroke-width="1" opacity="1"/><line transform="translate(0,44)" x2="-5" y2="0" stroke="#888" stroke-width="1" opacity="1"/><line transform="translate(0,0)" x2="-5" y2="0" stroke="#888" stroke-width="1" opacity="1"/></g><g class="mark-text role-axis-label" pointer-events="none"><text text-anchor="end" transform="translate(-7,404)" font-family="Arial, sans-serif" font-size="12px" fill="#3c444c" opacity="1">0</text><text text-anchor="end" transform="translate(-7,359.55555555555554)" font-family="Arial, sans-serif" font-size="12px" fill="#3c444c" opacity="1">50</text><text text-anchor="end" transform="translate(-7,315.11111111111114)" font-family="Arial, sans-serif" font-size="12px" fill="#3c444c" opacity="1">100</text><text text-anchor="end" transform="translate(-7,270.6666666666667)" font-family="Arial, sans-serif" font-size="12px" fill="#3c444c" opacity="1">150</text><text text-anchor="end" transform="translate(-7,226.22222222222223)" font-family="Arial, sans-serif" font-size="12px" fill="#3c444c" opacity="1">200</text><text text-anchor="end" transform="translate(-7,181.77777777777777)" font-family="Arial, sans-serif" font-size="12px" fill="#3c444c" opacity="1">250</text><text text-anchor="end" transform="translate(-7,137.33333333333334)" font-family="Arial, sans-serif" font-size="12px" fill="#3c444c" opacity="1">300</text><text text-anchor="end" transform="translate(-7,92.88888888888889)" font-family="Arial, sans-serif" font-size="12px" fill="#3c444c" opacity="1">350</text><text text-anchor="end" transform="translate(-7,48.444444444444464)" font-family="Arial, sans-serif" font-size="12px" fill="#3c444c" opacity="1">400</text><text text-anchor="end" transform="translate(-7,4)" font-family="Arial, sans-serif" font-size="12px" fill="#3c444c" opacity="1">450</text></g><g class="mark-rule role-axis-domain" pointer-events="none"><line transform="translate(0,400)" x2="0" y2="-400" stroke="#888" stroke-width="1" opacity="1"/></g><g class="mark-text role-axis-title" pointer-events="none"><text text-anchor="middle" transform="translate(-39,200) rotate(-90) translate(0,-3)" font-family="Arial, sans-serif" font-size="12px" font-weight="bold" fill="#3c444c" opacity="1">Views</text></g></g><path class="foreground" aria-hidden="true" d="" pointer-events="none" display="none"/></g></g><g class="mark-group role-scope" role="graphics-object" aria-roledescription="group mark container"><g transform="translate(0,0)"><path class="background" aria-hidden="true" d="M0,0h0v0h0Z"/><g><g class="mark-line role-mark" role="graphics-symbol" aria-roledescription="line mark container"><path d="M0,390.222C20.513,390.889,41.026,391.556,61.538,392.889C82.051,394.222,102.564,397.037,123.077,398.222C143.59,399.407,164.103,400,184.615,400C205.128,400,225.641,306.667,246.154,306.667C266.667,306.667,287.179,385.778,307.692,385.778C328.205,385.778,348.718,320.889,369.231,320.889C389.744,320.889,410.256,381.333,430.769,381.333C451.282,381.333,471.795,365.333,492.308,365.333C512.821,365.333,533.333,366.519,553.846,368.889C574.359,371.259,594.872,396.444,615.385,396.444C635.897,396.444,656.41,382.222,676.923,382.222C697.436,382.222,717.949,389.926,738.462,392.889C758.974,395.852,779.487,397.926,800,400" stroke="rgb(105, 194, 202)" stroke-width="2"/></g><g class="mark-text role-mark" role="graphics-object" aria-roledescription="text mark container"><text text-anchor="middle" transform="translate(0,380.22222222222223)" font-family="sans-serif" font-size="10px" fill="#888888">11</text><text text-anchor="middle" transform="translate(61.53846153846154,382.8888888888889)" font-family="sans-serif" font-size="10px" fill="#888888">8</text><text text-anchor="middle" transform="translate(123.07692307692308,388.22222222222223)" font-family="sans-serif" font-size="10px" fill="#888888">2</text><text text-anchor="middle" transform="translate(184.6153846153846,390)" font-family="sans-serif" font-size="10px" fill="#888888">0</text><text text-anchor="middle" transform="translate(246.15384615384616,296.66666666666663)" font-family="sans-serif" font-size="10px" fill="#888888">105</text><text text-anchor="middle" transform="translate(307.6923076923077,375.77777777777777)" font-family="sans-serif" font-size="10px" fill="#888888">16</text><text text-anchor="middle" transform="translate(369.2307692307692,310.88888888888886)" font-family="sans-serif" font-size="10px" fill="#888888">89</text><text text-anchor="middle" transform="translate(430.7692307692308,371.33333333333337)" font-family="sans-serif" font-size="10px" fill="#888888">21</text><text text-anchor="middle" transform="translate(492.3076923076923,355.3333333333333)" font-family="sans-serif" font-size="10px" fill="#888888">39</text><text text-anchor="middle" transform="translate(553.8461538461538,358.8888888888889)" font-family="sans-serif" font-size="10px" fill="#888888">35</text><text text-anchor="middle" transform="translate(615.3846153846154,386.44444444444446)" font-family="sans-serif" font-size="10px" fill="#888888">4</text><text text-anchor="middle" transform="translate(676.9230769230769,372.22222222222223)" font-family="sans-serif" font-size="10px" fill="#888888">20</text><text text-anchor="middle" transform="translate(738.4615384615385,382.8888888888889)" font-family="sans-serif" font-size="10px" fill="#888888">8</text><text text-anchor="middle" transform="translate(800,390)" font-family="sans-serif" font-size="10px" fill="#888888">0</text></g></g><path class="foreground" aria-hidden="true" d="" display="none"/></g><g transform="translate(0,0)"><path class="background" aria-hidden="true" d="M0,0h0v0h0Z"/><g><g class="mark-line role-mark" role="graphics-symbol" aria-roledescription="line mark container"><path d="M0,396.444C20.513,395.111,41.026,393.778,61.538,393.778C82.051,393.778,102.564,397.333,123.077,397.333C143.59,397.333,164.103,397.333,184.615,397.333C205.128,397.333,225.641,399.111,246.154,399.111C266.667,399.111,287.179,398.815,307.692,398.222C328.205,397.63,348.718,393.778,369.231,393.778C389.744,393.778,410.256,395.852,430.769,396.444C451.282,397.037,471.795,397.037,492.308,397.333C512.821,397.63,533.333,398.222,553.846,398.222C574.359,398.222,594.872,396.444,615.385,396.444C635.897,396.444,656.41,397.333,676.923,397.333C697.436,397.333,717.949,396.444,738.462,396.444C758.974,396.444,779.487,398.222,800,400" stroke="rgb(34, 131, 185)" stroke-width="2"/></g><g class="mark-text role-mark" role="graphics-object" aria-roledescription="text mark container"><text text-anchor="middle" transform="translate(0,386.44444444444446)" font-family="sans-serif" font-size="10px" fill="#888888">4</text><text text-anchor="middle" transform="translate(61.53846153846154,383.77777777777777)" font-family="sans-serif" font-size="10px" fill="#888888">7</text><text text-anchor="middle" transform="translate(123.07692307692308,387.3333333333333)" font-family="sans-serif" font-size="10px" fill="#888888">3</text><text text-anchor="middle" transform="translate(184.6153846153846,387.3333333333333)" font-family="sans-serif" font-size="10px" fill="#888888">3</text><text text-anchor="middle" transform="translate(246.15384615384616,389.1111111111111)" font-family="sans-serif" font-size="10px" fill="#888888">1</text><text text-anchor="middle" transform="translate(307.6923076923077,388.22222222222223)" font-family="sans-serif" font-size="10px" fill="#888888">2</text><text text-anchor="middle" transform="translate(369.2307692307692,383.77777777777777)" font-family="sans-serif" font-size="10px" fill="#888888">7</text><text text-anchor="middle" transform="translate(430.7692307692308,386.44444444444446)" font-family="sans-serif" font-size="10px" fill="#888888">4</text><text text-anchor="middle" transform="translate(492.3076923076923,387.3333333333333)" font-family="sans-serif" font-size="10px" fill="#888888">3</text><text text-anchor="middle" transform="translate(553.8461538461538,388.22222222222223)" font-family="sans-serif" font-size="10px" fill="#888888">2</text><text text-anchor="middle" transform="translate(615.3846153846154,386.44444444444446)" font-family="sans-serif" font-size="10px" fill="#888888">4</text><text text-anchor="middle" transform="translate(676.9230769230769,387.3333333333333)" font-family="sans-serif" font-size="10px" fill="#888888">3</text><text text-anchor="middle" transform="translate(738.4615384615385,386.44444444444446)" font-family="sans-serif" font-size="10px" fill="#888888">4</text><text text-anchor="middle" transform="translate(800,390)" font-family="sans-serif" font-size="10px" fill="#888888">0</text></g></g><path class="foreground" aria-hidden="true" d="" display="none"/></g><g transform="translate(0,0)"><path class="background" aria-hidden="true" d="M0,0h0v0h0Z"/><g><g class="mark-line role-mark" role="graphics-symbol" aria-roledescription="line mark container"><path d="M0,341.333C20.513,345.704,41.026,350.074,61.538,357.333C82.051,364.593,102.564,381.926,123.077,384.889C143.59,387.852,164.103,389.333,184.615,389.333C205.128,389.333,225.641,271.852,246.154,214.222C266.667,156.593,287.179,43.556,307.692,43.556C328.205,43.556,348.718,201.481,369.231,216.889C389.744,232.296,410.256,240,430.769,240C451.282,240,471.795,197.333,492.308,197.333C512.821,197.333,533.333,310.222,553.846,310.222C574.359,310.222,594.872,267.259,615.385,247.111C635.897,226.963,656.41,189.333,676.923,189.333C697.436,189.333,717.949,272.593,738.462,306.667C758.974,340.741,779.487,367.259,800,393.778" stroke="rgb(184, 227, 190)" stroke-width="2"/></g><g class="mark-text role-mark" role="graphics-object" aria-roledescription="text mark container"><text text-anchor="middle" transform="translate(0,331.3333333333333)" font-family="sans-serif" font-size="10px" fill="#888888">66</text><text text-anchor="middle" transform="translate(61.53846153846154,347.3333333333333)" font-family="sans-serif" font-size="10px" fill="#888888">48</text><text text-anchor="middle" transform="translate(123.07692307692308,374.88888888888886)" font-family="sans-serif" font-size="10px" fill="#888888">17</text><text text-anchor="middle" transform="translate(184.6153846153846,379.33333333333337)" font-family="sans-serif" font-size="10px" fill="#888888">12</text><text text-anchor="middle" transform="translate(246.15384615384616,204.22222222222223)" font-family="sans-serif" font-size="10px" fill="#888888">209</text><text text-anchor="middle" transform="translate(307.6923076923077,33.55555555555557)" font-family="sans-serif" font-size="10px" fill="#888888">401</text><text text-anchor="middle" transform="translate(369.2307692307692,206.88888888888886)" font-family="sans-serif" font-size="10px" fill="#888888">206</text><text text-anchor="middle" transform="translate(430.7692307692308,230)" font-family="sans-serif" font-size="10px" fill="#888888">180</text><text text-anchor="middle" transform="translate(492.3076923076923,187.33333333333331)" font-family="sans-serif" font-size="10px" fill="#888888">228</text><text text-anchor="middle" transform="translate(553.8461538461538,300.22222222222223)" font-family="sans-serif" font-size="10px" fill="#888888">101</text><text text-anchor="middle" transform="translate(615.3846153846154,237.11111111111111)" font-family="sans-serif" font-size="10px" fill="#888888">172</text><text text-anchor="middle" transform="translate(676.9230769230769,179.33333333333334)" font-family="sans-serif" font-size="10px" fill="#888888">237</text><text text-anchor="middle" transform="translate(738.4615384615385,296.66666666666663)" font-family="sans-serif" font-size="10px" fill="#888888">105</text><text text-anchor="middle" transform="translate(800,383.77777777777777)" font-family="sans-serif" font-size="10px" fill="#888888">7</text></g></g><path class="foreground" aria-hidden="true" d="" display="none"/></g><g transform="translate(0,0)"><path class="background" aria-hidden="true" d="M0,0h0v0h0Z"/><g><g class="mark-line role-mark" role="graphics-symbol" aria-roledescription="line mark container"><path d="M0,390.222C20.513,367.111,41.026,344,61.538,344C82.051,344,102.564,400,123.077,400C143.59,400,164.103,400,184.615,400C205.128,400,225.641,351.111,246.154,351.111C266.667,351.111,287.179,361.778,307.692,368.889C328.205,376,348.718,393.778,369.231,393.778C389.744,393.778,410.256,392.889,430.769,391.111C451.282,389.333,471.795,357.333,492.308,357.333C512.821,357.333,533.333,400,553.846,400C574.359,400,594.872,398.222,615.385,394.667C635.897,391.111,656.41,337.778,676.923,337.778C697.436,337.778,717.949,392.296,738.462,394.667C758.974,397.037,779.487,397.63,800,398.222" stroke="rgb(67, 165, 201)" stroke-width="2"/></g><g class="mark-text role-mark" role="graphics-object" aria-roledescription="text mark container"><text text-anchor="middle" transform="translate(0,380.22222222222223)" font-family="sans-serif" font-size="10px" fill="#888888">11</text><text text-anchor="middle" transform="translate(61.53846153846154,334)" font-family="sans-serif" font-size="10px" fill="#888888">63</text><text text-anchor="middle" transform="translate(123.07692307692308,390)" font-family="sans-serif" font-size="10px" fill="#888888">0</text><text text-anchor="middle" transform="translate(184.6153846153846,390)" font-family="sans-serif" font-size="10px" fill="#888888">0</text><text text-anchor="middle" transform="translate(246.15384615384616,341.1111111111111)" font-family="sans-serif" font-size="10px" fill="#888888">55</text><text text-anchor="middle" transform="translate(307.6923076923077,358.8888888888889)" font-family="sans-serif" font-size="10px" fill="#888888">35</text><text text-anchor="middle" transform="translate(369.2307692307692,383.77777777777777)" font-family="sans-serif" font-size="10px" fill="#888888">7</text><text text-anchor="middle" transform="translate(430.7692307692308,381.1111111111111)" font-family="sans-serif" font-size="10px" fill="#888888">10</text><text text-anchor="middle" transform="translate(492.3076923076923,347.3333333333333)" font-family="sans-serif" font-size="10px" fill="#888888">48</text><text text-anchor="middle" transform="translate(553.8461538461538,390)" font-family="sans-serif" font-size="10px" fill="#888888">0</text><text text-anchor="middle" transform="translate(615.3846153846154,384.6666666666667)" font-family="sans-serif" font-size="10px" fill="#888888">6</text><text text-anchor="middle" transform="translate(676.9230769230769,327.77777777777777)" font-family="sans-serif" font-size="10px" fill="#888888">70</text><text text-anchor="middle" transform="translate(738.4615384615385,384.6666666666667)" font-family="sans-serif" font-size="10px" fill="#888888">6</text><text text-anchor="middle" transform="translate(800,388.22222222222223)" font-family="sans-serif" font-size="10px" fill="#888888">2</text></g></g><path class="foreground" aria-hidden="true" d="" display="none"/></g><g transform="translate(0,0)"><path class="background" aria-hidden="true" d="M0,0h0v0h0Z"/><g><g class="mark-line role-mark" role="graphics-symbol" aria-roledescription="line mark container"><path d="M0,390.222C20.513,366.222,41.026,342.222,61.538,342.222C82.051,342.222,102.564,394.667,123.077,394.667C143.59,394.667,164.103,340.444,184.615,340.444C205.128,340.444,225.641,366.222,246.154,366.222C266.667,366.222,287.179,354.667,307.692,354.667C328.205,354.667,348.718,374.519,369.231,376.889C389.744,379.259,410.256,380.444,430.769,380.444C451.282,380.444,471.795,344,492.308,344C512.821,344,533.333,382.222,553.846,382.222C574.359,382.222,594.872,381.926,615.385,381.333C635.897,380.741,656.41,337.778,676.923,337.778C697.436,337.778,717.949,341.333,738.462,348.444C758.974,355.556,779.487,377.778,800,400" stroke="rgb(147, 213, 189)" stroke-width="2"/></g><g class="mark-text role-mark" role="graphics-object" aria-roledescription="text mark container"><text text-anchor="middle" transform="translate(0,380.22222222222223)" font-family="sans-serif" font-size="10px" fill="#888888">11</text><text text-anchor="middle" transform="translate(61.53846153846154,332.22222222222223)" font-family="sans-serif" font-size="10px" fill="#888888">65</text><text text-anchor="middle" transform="translate(123.07692307692308,384.6666666666667)" font-family="sans-serif" font-size="10px" fill="#888888">6</text><text text-anchor="middle" transform="translate(184.6153846153846,330.44444444444446)" font-family="sans-serif" font-size="10px" fill="#888888">67</text><text text-anchor="middle" transform="translate(246.15384615384616,356.22222222222223)" font-family="sans-serif" font-size="10px" fill="#888888">38</text><text text-anchor="middle" transform="translate(307.6923076923077,344.6666666666667)" font-family="sans-serif" font-size="10px" fill="#888888">51</text><text text-anchor="middle" transform="translate(369.2307692307692,366.88888888888886)" font-family="sans-serif" font-size="10px" fill="#888888">26</text><text text-anchor="middle" transform="translate(430.7692307692308,370.44444444444446)" font-family="sans-serif" font-size="10px" fill="#888888">22</text><text text-anchor="middle" transform="translate(492.3076923076923,334)" font-family="sans-serif" font-size="10px" fill="#888888">63</text><text text-anchor="middle" transform="translate(553.8461538461538,372.22222222222223)" font-family="sans-serif" font-size="10px" fill="#888888">20</text><text text-anchor="middle" transform="translate(615.3846153846154,371.33333333333337)" font-family="sans-serif" font-size="10px" fill="#888888">21</text><text text-anchor="middle" transform="translate(676.9230769230769,327.77777777777777)" font-family="sans-serif" font-size="10px" fill="#888888">70</text><text text-anchor="middle" transform="translate(738.4615384615385,338.44444444444446)" font-family="sans-serif" font-size="10px" fill="#888888">58</text><text text-anchor="middle" transform="translate(800,390)" font-family="sans-serif" font-size="10px" fill="#888888">0</text></g></g><path class="foreground" aria-hidden="true" d="" display="none"/></g></g><g class="mark-group role-legend" role="graphics-symbol" aria-roledescription="legend" aria-label="Symbol legend for fill color with 5 values: onshape-robotics-toolkit, TMotorCANControl, neurobionicspi, opensourceleg, anton"><g transform="translate(0,451)"><path class="background" aria-hidden="true" d="M0,0h732v12h-732Z" pointer-events="none"/><g><g class="mark-group role-legend-entry"><g transform="translate(0,0)"><path class="background" aria-hidden="true" d="M0,0h0v0h0Z" pointer-events="none"/><g><g class="mark-group role-scope" role="graphics-object" aria-roledescription="group mark container"><g transform="translate(0,0)"><path class="background" aria-hidden="true" d="M0,0h169v12h-169Z" pointer-events="none" opacity="1"/><g><g class="mark-symbol role-legend-symbol" pointer-events="none"><path transform="translate(6,6)" d="M5,0A5,5,0,1,1,-5,0A5,5,0,1,1,5,0" fill="rgb(184, 227, 190)" stroke-width="1.5" opacity="1"/></g><g class="mark-text role-legend-label" pointer-events="none"><text text-anchor="start" transform="translate(16,10)" font-family="Arial, sans-serif" font-size="12px" fill="#bfc6cc" opacity="1">onshape-robotic…</text></g></g><path class="foreground" aria-hidden="true" d="" pointer-events="none" display="none"/></g><g transform="translate(179,0)"><path class="background" aria-hidden="true" d="M0,0h169v12h-169Z" pointer-events="none" opacity="1"/><g><g class="mark-symbol role-legend-symbol" pointer-events="none"><path transform="translate(6,6)" d="M5,0A5,5,0,1,1,-5,0A5,5,0,1,1,5,0" fill="rgb(147, 213, 189)" stroke-width="1.5" opacity="1"/></g><g class="mark-text role-legend-label" pointer-events="none"><text text-anchor="start" transform="translate(16,10)" font-family="Arial, sans-serif" font-size="12px" fill="#bfc6cc" opacity="1">TMotorCANControl</text></g></g><path class="foreground" aria-hidden="true" d="" pointer-events="none" display="none"/></g><g transform="translate(358,0)"><path class="background" aria-hidden="true" d="M0,0h150v12h-150Z" pointer-events="none" opacity="1"/><g><g class="mark-symbol role-legend-symbol" pointer-events="none"><path transform="translate(6,6)" d="M5,0A5,5,0,1,1,-5,0A5,5,0,1,1,5,0" fill="rgb(105, 194, 202)" stroke-width="1.5" opacity="1"/></g><g class="mark-text role-legend-label" pointer-events="none"><text text-anchor="start" transform="translate(16,10)" font-family="Arial, sans-serif" font-size="12px" fill="#bfc6cc" opacity="1">neurobionicspi</text></g></g><path class="foreground" aria-hidden="true" d="" pointer-events="none" display="none"/></g><g transform="translate(518,0)"><path class="background" aria-hidden="true" d="M0,0h140v12h-140Z" pointer-events="none" opacity="1"/><g><g class="mark-symbol role-legend-symbol" pointer-events="none"><path transform="translate(6,6)" d="M5,0A5,5,0,1,1,-5,0A5,5,0,1,1,5,0" fill="rgb(67, 165, 201)" stroke-width="1.5" opacity="1"/></g><g class="mark-text role-legend-label" pointer-events="none"><text text-anchor="start" transform="translate(16,10)" font-family="Arial, sans-serif" font-size="12px" fill="#bfc6cc" opacity="1">opensourceleg</text></g></g><path class="foreground" aria-hidden="true" d="" pointer-events="none" display="none"/></g><g transform="translate(668,0)"><path class="background" aria-hidden="true" d="M0,0h64v12h-64Z" pointer-events="none" opacity="1"/><g><g class="mark-symbol role-legend-symbol" pointer-events="none"><path transform="translate(6,6)" d="M5,0A5,5,0,1,1,-5,0A5,5,0,1,1,5,0" fill="rgb(34, 131, 185)" stroke-width="1.5" opacity="1"/></g><g class="mark-text role-legend-label" pointer-events="none"><text text-anchor="start" transform="translate(16,10)" font-family="Arial, sans-serif" font-size="12px" fill="#bfc6cc" opacity="1">anton</text></g></g><path class="foreground" aria-hidden="true" d="" pointer-events="none" display="none"/></g></g></g><path class="foreground" aria-hidden="true" d="" pointer-events="none" display="none"/></g></g></g><path class="foreground" aria-hidden="true" d="" pointer-events="none" display="none"/></g></g><g class="mark-group role-title"><g transform="translate(386,-26)"><path class="background" aria-hidden="true" d="M0,0h0v0h0Z" pointer-events="none"/><g><g class="mark-text role-title-text" role="graphics-symbol" aria-roledescription="title" aria-label="Title text 'Repository Views Over Time'" pointer-events="none"><text text-anchor="middle" transform="translate(0,13)" font-family="Arial, sans-serif" font-size="16px" font-weight="bold" fill="#bfc6cc" opacity="1">Repository Views Over Time</text></g></g><path class="foreground" aria-hidden="true" d="" pointer-events="none" display="none"/></g></g></g><path class="foreground" aria-hidden="true" d="" display="none"/></g></g></g></svg>