<svg xmlns="http://www.w3.org/2000/svg" xmlns:xlink="http://www.w3.org/1999/xlink" version="1.1" class="marks" width="916" height="529" viewBox="0 0 916 529"><g fill="none" stroke-miterlimit="10" transform="translate(72,46)"><g class="mark-group role-frame root" role="graphics-object" aria-roledescription="group mark container"><g transform="translate(0,0)"><path class="background" aria-hidden="true" d="M0,0h800v400h-800Z"/><g><g class="mark-group role-axis" role="graphics-symbol" aria-roledescription="axis" aria-label="X-axis titled 'Date' for a discrete scale with 14 values: 02-09, 02-10, 02-11, 02-12, 02-13, ending with 02-22"><g transform="translate(0.5,400.5)"><path class="background" aria-hidden="true" d="M0,0h0v0h0Z" pointer-events="none"/><g><g class="mark-rule role-axis-tick" pointer-events="none"><line transform="translate(0,0)" x2="0" y2="5" stroke="#888" stroke-width="1" opacity="1"/><line transform="translate(62,0)" x2="0" y2="5" stroke="#888" stroke-width="1" opacity="1"/><line transform="translate(123,0)" x2="0" y2="5" stroke="#888" stroke-width="1" opacity="1"/><line transform="translate(185,0)" x2="0" y2="5" stroke="#888" stroke-width="1" opacity="1"/><line transform="translate(246,0)" x2="0" y2="5" stroke="#888" stroke-width="1" opacity="1"/><line transform="translate(308,0)" x2="0" y2="5" stroke="#888" stroke-width="1" opacity="1"/><line transform="translate(369,0)" x2="0" y2="5" stroke="#888" stroke-width="1" opacity="1"/><line transform="translate(431,0)" x2="0" y2="5" stroke="#888" stroke-width="1" opacity="1"/><line transform="translate(492,0)" x2="0" y2="5" stroke="#888" stroke-width="1" opacity="1"/><line transform="translate(554,0)" x2="0" y2="5" stroke="#888" stroke-width="1" opacity="1"/><line transform="translate(615,0)" x2="0" y2="5" stroke="#888" stroke-width="1" opacity="1"/><line transform="translate(677,0)" x2="0" y2="5" stroke="#888" stroke-width="1" opacity="1"/><line transform="translate(738,0)" x2="0" y2="5" stroke="#888" stroke-width="1" opacity="1"/><line transform="translate(800,0)" x2="0" y2="5" stroke="#888" stroke-width="1" opacity="1"/></g><g class="mark-text role-axis-label" pointer-events="none"><text text-anchor="middle" transform="translate(0,16)" font-family="Arial, sans-serif" font-size="12px" fill="#3c444c" opacity="1">02-09</text><text text-anchor="middle" transform="translate(61.53846153846154,16)" font-family="Arial, sans-serif" font-size="12px" fill="#3c444c" opacity="1">02-10</text><text text-anchor="middle" transform="translate(123.07692307692308,16)" font-family="Arial, sans-serif" font-size="12px" fill="#3c444c" opacity="1">02-11</text><text text-anchor="middle" transform="translate(184.6153846153846,16)" font-family="Arial, sans-serif" font-size="12px" fill="#3c444c" opacity="1">02-12</text><text text-anchor="middle" transform="translate(246.15384615384616,16)" font-family="Arial, sans-serif" font-size="12px" fill="#3c444c" opacity="1">02-13</text><text text-anchor="middle" transform="translate(307.6923076923077,16)" font-family="Arial, sans-serif" font-size="12px" fill="#3c444c" opacity="1">02-14</text><text text-anchor="middle" transform="translate(369.2307692307692,16)" font-family="Arial, sans-serif" font-size="12px" fill="#3c444c" opacity="1">02-15</text><text text-anchor="middle" transform="translate(430.7692307692308,16)" font-family="Arial, sans-serif" font-size="12px" fill="#3c444c" opacity="1">02-16</text><text text-anchor="middle" transform="translate(492.3076923076923,16)" font-family="Arial, sans-serif" font-size="12px" fill="#3c444c" opacity="1">02-17</text><text text-anchor="middle" transform="translate(553.8461538461538,16)" font-family="Arial, sans-serif" font-size="12px" fill="#3c444c" opacity="1">02-18</text><text text-anchor="middle" transform="translate(615.3846153846154,16)" font-family="Arial, sans-serif" font-size="12px" fill="#3c444c" opacity="1">02-19</text><text text-anchor="middle" transform="translate(676.9230769230769,16)" font-family="Arial, sans-serif" font-size="12px" fill="#3c444c" opacity="1">02-20</text><text text-anchor="middle" transform="translate(738.4615384615385,16)" font-family="Arial, sans-serif" font-size="12px" fill="#3c444c" opacity="1">02-21</text><text text-anchor="middle" transform="translate(800,16)" font-family="Arial, sans-serif" font-size="12px" fill="#3c444c" opacity="1">02-22</text></g><g class="mark-rule role-axis-domain" pointer-events="none"><line transform="translate(0,0)" x2="800" y2="0" stroke="#888" stroke-width="1" opacity="1"/></g><g class="mark-text role-axis-title" pointer-events="none"><text text-anchor="middle" transform="translate(400,31)" font-family="Arial, sans-serif" font-size="12px" font-weight="bold" fill="#3c444c" opacity="1">Date</text></g></g><path class="foreground" aria-hidden="true" d="" pointer-events="none" display="none"/></g></g><g class="mark-group role-axis" role="graphics-symbol" aria-roledescription="axis" aria-label="Y-axis titled 'Views' for a linear scale with values from 0 to 200"><g transform="translate(0.5,0.5)"><path class="background" aria-hidden="true" d="M0,0h0v0h0Z" pointer-events="none"/><g><g class="mark-rule role-axis-tick" pointer-events="none"><line transform="translate(0,400)" x2="-5" y2="0" stroke="#888" stroke-width="1" opacity="1"/><line transform="translate(0,360)" x2="-5" y2="0" stroke="#888" stroke-width="1" opacity="1"/><line transform="translate(0,320)" x2="-5" y2="0" stroke="#888" stroke-width="1" opacity="1"/><line transform="translate(0,280)" x2="-5" y2="0" stroke="#888" stroke-width="1" opacity="1"/><line transform="translate(0,240)" x2="-5" y2="0" stroke="#888" stroke-width="1" opacity="1"/><line transform="translate(0,200)" x2="-5" y2="0" stroke="#888" stroke-width="1" opacity="1"/><line transform="translate(0,160)" x2="-5" y2="0" stroke="#888" stroke-width="1" opacity="1"/><line transform="translate(0,120)" x2="-5" y2="0" stroke="#888" stroke-width="1" opacity="1"/><line transform="translate(0,80)" x2="-5" y2="0" stroke="#888" stroke-width="1" opacity="1"/><line transform="translate(0,40)" x2="-5" y2="0" stroke="#888" stroke-width="1" opacity="1"/><line transform="translate(0,0)" x2="-5" y2="0" stroke="#888" stroke-width="1" opacity="1"/></g><g class="mark-text role-axis-label" pointer-events="none"><text text-anchor="end" transform="translate(-7,404)" font-family="Arial, sans-serif" font-size="12px" fill="#3c444c" opacity="1">0</text><text text-anchor="end" transform="translate(-7,364)" font-family="Arial, sans-serif" font-size="12px" fill="#3c444c" opacity="1">20</text><text text-anchor="end" transform="translate(-7,324)" font-family="Arial, sans-serif" font-size="12px" fill="#3c444c" opacity="1">40</text><text text-anchor="end" transform="translate(-7,284)" font-family="Arial, sans-serif" font-size="12px" fill="#3c444c" opacity="1">60</text><text text-anchor="end" transform="translate(-7,244)" font-family="Arial, sans-serif" font-size="12px" fill="#3c444c" opacity="1">80</text><text text-anchor="end" transform="translate(-7,204)" font-family="Arial, sans-serif" font-size="12px" fill="#3c444c" opacity="1">100</text><text text-anchor="end" transform="translate(-7,164)" font-family="Arial, sans-serif" font-size="12px" fill="#3c444c" opacity="1">120</text><text text-anchor="end" transform="translate(-7,124.00000000000001)" font-family="Arial, sans-serif" font-size="12px" fill="#3c444c" opacity="1">140</text><text text-anchor="end" transform="translate(-7,83.99999999999999)" font-family="Arial, sans-serif" font-size="12px" fill="#3c444c" opacity="1">160</text><text text-anchor="end" transform="translate(-7,43.99999999999999)" font-family="Arial, sans-serif" font-size="12px" fill="#3c444c" opacity="1">180</text><text text-anchor="end" transform="translate(-7,4)" font-family="Arial, sans-serif" font-size="12px" fill="#3c444c" opacity="1">200</text></g><g class="mark-rule role-axis-domain" pointer-events="none"><line transform="translate(0,400)" x2="0" y2="-400" stroke="#888" stroke-width="1" opacity="1"/></g><g class="mark-text role-axis-title" pointer-events="none"><text text-anchor="middle" transform="translate(-39,200) rotate(-90) translate(0,-3)" font-family="Arial, sans-serif" font-size="12px" font-weight="bold" fill="#3c444c" opacity="1">Views</text></g></g><path class="foreground" aria-hidden="true" d="" pointer-events="none" display="none"/></g></g><g class="mark-group role-scope" role="graphics-object" aria-roledescription="group mark container"><g transform="translate(0,0)"><path class="background" aria-hidden="true" d="M0,0h0v0h0Z"/><g><g class="mark-line role-mark" role="graphics-symbol" aria-roledescription="line mark container"><path d="M0,396C20.513,385.333,41.026,374.667,61.538,372C82.051,369.333,102.564,368,123.077,368C143.59,368,164.103,370,184.615,370C205.128,370,225.641,358,246.154,358C266.667,358,287.179,390,307.692,390C328.205,390,348.718,384,369.231,384C389.744,384,410.256,394,430.769,394C451.282,394,471.795,378.333,492.308,372C512.821,365.667,533.333,358.667,553.846,356C574.359,353.333,594.872,352,615.385,352C635.897,352,656.41,378,676.923,378C697.436,378,717.949,370,738.462,370C758.974,370,779.487,383,800,396" stroke="rgb(67, 165, 201)" stroke-width="2"/></g><g class="mark-text role-mark" role="graphics-object" aria-roledescription="text mark container"><text text-anchor="middle" transform="translate(0,386)" font-family="sans-serif" font-size="10px" fill="#888888">2</text><text text-anchor="middle" transform="translate(61.53846153846154,362)" font-family="sans-serif" font-size="10px" fill="#888888">14</text><text text-anchor="middle" transform="translate(123.07692307692308,358)" font-family="sans-serif" font-size="10px" fill="#888888">16</text><text text-anchor="middle" transform="translate(184.6153846153846,360)" font-family="sans-serif" font-size="10px" fill="#888888">15</text><text text-anchor="middle" transform="translate(246.15384615384616,348)" font-family="sans-serif" font-size="10px" fill="#888888">21</text><text text-anchor="middle" transform="translate(307.6923076923077,380)" font-family="sans-serif" font-size="10px" fill="#888888">5</text><text text-anchor="middle" transform="translate(369.2307692307692,374)" font-family="sans-serif" font-size="10px" fill="#888888">8</text><text text-anchor="middle" transform="translate(430.7692307692308,384)" font-family="sans-serif" font-size="10px" fill="#888888">3</text><text text-anchor="middle" transform="translate(492.3076923076923,362)" font-family="sans-serif" font-size="10px" fill="#888888">14</text><text text-anchor="middle" transform="translate(553.8461538461538,346)" font-family="sans-serif" font-size="10px" fill="#888888">22</text><text text-anchor="middle" transform="translate(615.3846153846154,342)" font-family="sans-serif" font-size="10px" fill="#888888">24</text><text text-anchor="middle" transform="translate(676.9230769230769,368)" font-family="sans-serif" font-size="10px" fill="#888888">11</text><text text-anchor="middle" transform="translate(738.4615384615385,360)" font-family="sans-serif" font-size="10px" fill="#888888">15</text><text text-anchor="middle" transform="translate(800,386)" font-family="sans-serif" font-size="10px" fill="#888888">2</text></g></g><path class="foreground" aria-hidden="true" d="" display="none"/></g><g transform="translate(0,0)"><path class="background" aria-hidden="true" d="M0,0h0v0h0Z"/><g><g class="mark-line role-mark" role="graphics-symbol" aria-roledescription="line mark container"><path d="M0,96C20.513,94.333,41.026,92.667,61.538,86C82.051,79.333,102.564,18,123.077,18C143.59,18,164.103,182,184.615,182C205.128,182,225.641,162,246.154,162C266.667,162,287.179,234.667,307.692,260C328.205,285.333,348.718,312.667,369.231,314C389.744,315.333,410.256,316,430.769,316C451.282,316,471.795,304,492.308,280C512.821,256,533.333,100,553.846,100C574.359,100,594.872,237.333,615.385,260C635.897,282.667,656.41,283.667,676.923,294C697.436,304.333,717.949,315.333,738.462,322C758.974,328.667,779.487,331.333,800,334" stroke="rgb(184, 227, 190)" stroke-width="2"/></g><g class="mark-text role-mark" role="graphics-object" aria-roledescription="text mark container"><text text-anchor="middle" transform="translate(0,86)" font-family="sans-serif" font-size="10px" fill="#888888">152</text><text text-anchor="middle" transform="translate(61.53846153846154,75.99999999999999)" font-family="sans-serif" font-size="10px" fill="#888888">157</text><text text-anchor="middle" transform="translate(123.07692307692308,8.000000000000014)" font-family="sans-serif" font-size="10px" fill="#888888">191</text><text text-anchor="middle" transform="translate(184.6153846153846,171.99999999999997)" font-family="sans-serif" font-size="10px" fill="#888888">109</text><text text-anchor="middle" transform="translate(246.15384615384616,152)" font-family="sans-serif" font-size="10px" fill="#888888">119</text><text text-anchor="middle" transform="translate(307.6923076923077,250)" font-family="sans-serif" font-size="10px" fill="#888888">70</text><text text-anchor="middle" transform="translate(369.2307692307692,304)" font-family="sans-serif" font-size="10px" fill="#888888">43</text><text text-anchor="middle" transform="translate(430.7692307692308,306)" font-family="sans-serif" font-size="10px" fill="#888888">42</text><text text-anchor="middle" transform="translate(492.3076923076923,270)" font-family="sans-serif" font-size="10px" fill="#888888">60</text><text text-anchor="middle" transform="translate(553.8461538461538,90)" font-family="sans-serif" font-size="10px" fill="#888888">150</text><text text-anchor="middle" transform="translate(615.3846153846154,250)" font-family="sans-serif" font-size="10px" fill="#888888">70</text><text text-anchor="middle" transform="translate(676.9230769230769,284)" font-family="sans-serif" font-size="10px" fill="#888888">53</text><text text-anchor="middle" transform="translate(738.4615384615385,312)" font-family="sans-serif" font-size="10px" fill="#888888">39</text><text text-anchor="middle" transform="translate(800,324)" font-family="sans-serif" font-size="10px" fill="#888888">33</text></g></g><path class="foreground" aria-hidden="true" d="" display="none"/></g><g transform="translate(0,0)"><path class="background" aria-hidden="true" d="M0,0h0v0h0Z"/><g><g class="mark-line role-mark" role="graphics-symbol" aria-roledescription="line mark container"><path d="M0,370C20.513,376,41.026,382,61.538,382C82.051,382,102.564,346,123.077,346C143.59,346,164.103,386,184.615,386C205.128,386,225.641,378,246.154,378C266.667,378,287.179,392,307.692,392C328.205,392,348.718,370,369.231,370C389.744,370,410.256,370,430.769,370C451.282,370,471.795,354,492.308,354C512.821,354,533.333,387.333,553.846,390C574.359,392.667,594.872,394,615.385,394C635.897,394,656.41,394,676.923,394C697.436,394,717.949,378,738.462,378C758.974,378,779.487,382,800,386" stroke="rgb(34, 131, 185)" stroke-width="2"/></g><g class="mark-text role-mark" role="graphics-object" aria-roledescription="text mark container"><text text-anchor="middle" transform="translate(0,360)" font-family="sans-serif" font-size="10px" fill="#888888">15</text><text text-anchor="middle" transform="translate(61.53846153846154,372)" font-family="sans-serif" font-size="10px" fill="#888888">9</text><text text-anchor="middle" transform="translate(123.07692307692308,336)" font-family="sans-serif" font-size="10px" fill="#888888">27</text><text text-anchor="middle" transform="translate(184.6153846153846,376)" font-family="sans-serif" font-size="10px" fill="#888888">7</text><text text-anchor="middle" transform="translate(246.15384615384616,368)" font-family="sans-serif" font-size="10px" fill="#888888">11</text><text text-anchor="middle" transform="translate(307.6923076923077,382)" font-family="sans-serif" font-size="10px" fill="#888888">4</text><text text-anchor="middle" transform="translate(369.2307692307692,360)" font-family="sans-serif" font-size="10px" fill="#888888">15</text><text text-anchor="middle" transform="translate(430.7692307692308,360)" font-family="sans-serif" font-size="10px" fill="#888888">15</text><text text-anchor="middle" transform="translate(492.3076923076923,344)" font-family="sans-serif" font-size="10px" fill="#888888">23</text><text text-anchor="middle" transform="translate(553.8461538461538,380)" font-family="sans-serif" font-size="10px" fill="#888888">5</text><text text-anchor="middle" transform="translate(615.3846153846154,384)" font-family="sans-serif" font-size="10px" fill="#888888">3</text><text text-anchor="middle" transform="translate(676.9230769230769,384)" font-family="sans-serif" font-size="10px" fill="#888888">3</text><text text-anchor="middle" transform="translate(738.4615384615385,368)" font-family="sans-serif" font-size="10px" fill="#888888">11</text><text text-anchor="middle" transform="translate(800,376)" font-family="sans-serif" font-size="10px" fill="#888888">7</text></g></g><path class="foreground" aria-hidden="true" d="" display="none"/></g><g transform="translate(0,0)"><path class="background" aria-hidden="true" d="M0,0h0v0h0Z"/><g><g class="mark-line role-mark" role="graphics-symbol" aria-roledescription="line mark container"><path d="M0,398C20.513,396,41.026,394,61.538,394C82.051,394,102.564,396,123.077,396C143.59,396,164.103,390.667,184.615,380C205.128,369.333,225.641,284,246.154,284C266.667,284,287.179,382,307.692,382C328.205,382,348.718,332,369.231,332C389.744,332,410.256,400,430.769,400C451.282,400,471.795,328,492.308,328C512.821,328,533.333,384,553.846,384C574.359,384,594.872,296,615.385,296C635.897,296,656.41,380,676.923,380C697.436,380,717.949,250,738.462,250C758.974,250,779.487,325,800,400" stroke="rgb(105, 194, 202)" stroke-width="2"/></g><g class="mark-text role-mark" role="graphics-object" aria-roledescription="text mark container"><text text-anchor="middle" transform="translate(0,388)" font-family="sans-serif" font-size="10px" fill="#888888">1</text><text text-anchor="middle" transform="translate(61.53846153846154,384)" font-family="sans-serif" font-size="10px" fill="#888888">3</text><text text-anchor="middle" transform="translate(123.07692307692308,386)" font-family="sans-serif" font-size="10px" fill="#888888">2</text><text text-anchor="middle" transform="translate(184.6153846153846,370)" font-family="sans-serif" font-size="10px" fill="#888888">10</text><text text-anchor="middle" transform="translate(246.15384615384616,274)" font-family="sans-serif" font-size="10px" fill="#888888">58</text><text text-anchor="middle" transform="translate(307.6923076923077,372)" font-family="sans-serif" font-size="10px" fill="#888888">9</text><text text-anchor="middle" transform="translate(369.2307692307692,322)" font-family="sans-serif" font-size="10px" fill="#888888">34</text><text text-anchor="middle" transform="translate(430.7692307692308,390)" font-family="sans-serif" font-size="10px" fill="#888888">0</text><text text-anchor="middle" transform="translate(492.3076923076923,318)" font-family="sans-serif" font-size="10px" fill="#888888">36</text><text text-anchor="middle" transform="translate(553.8461538461538,374)" font-family="sans-serif" font-size="10px" fill="#888888">8</text><text text-anchor="middle" transform="translate(615.3846153846154,286)" font-family="sans-serif" font-size="10px" fill="#888888">52</text><text text-anchor="middle" transform="translate(676.9230769230769,370)" font-family="sans-serif" font-size="10px" fill="#888888">10</text><text text-anchor="middle" transform="translate(738.4615384615385,240)" font-family="sans-serif" font-size="10px" fill="#888888">75</text><text text-anchor="middle" transform="translate(800,390)" font-family="sans-serif" font-size="10px" fill="#888888">0</text></g></g><path class="foreground" aria-hidden="true" d="" display="none"/></g><g transform="translate(0,0)"><path class="background" aria-hidden="true" d="M0,0h0v0h0Z"/><g><g class="mark-line role-mark" role="graphics-symbol" aria-roledescription="line mark container"><path d="M0,396C20.513,380.667,41.026,365.333,61.538,352C82.051,338.667,102.564,316,123.077,316C143.59,316,164.103,356,184.615,356C205.128,356,225.641,353.333,246.154,348C266.667,342.667,287.179,234,307.692,234C328.205,234,348.718,386,369.231,386C389.744,386,410.256,380.667,430.769,370C451.282,359.333,471.795,336,492.308,304C512.821,272,533.333,178,553.846,178C574.359,178,594.872,290,615.385,290C635.897,290,656.41,120,676.923,120C697.436,120,717.949,168.333,738.462,198C758.974,227.667,779.487,262.833,800,298" stroke="rgb(147, 213, 189)" stroke-width="2"/></g><g class="mark-text role-mark" role="graphics-object" aria-roledescription="text mark container"><text text-anchor="middle" transform="translate(0,386)" font-family="sans-serif" font-size="10px" fill="#888888">2</text><text text-anchor="middle" transform="translate(61.53846153846154,342)" font-family="sans-serif" font-size="10px" fill="#888888">24</text><text text-anchor="middle" transform="translate(123.07692307692308,306)" font-family="sans-serif" font-size="10px" fill="#888888">42</text><text text-anchor="middle" transform="translate(184.6153846153846,346)" font-family="sans-serif" font-size="10px" fill="#888888">22</text><text text-anchor="middle" transform="translate(246.15384615384616,338)" font-family="sans-serif" font-size="10px" fill="#888888">26</text><text text-anchor="middle" transform="translate(307.6923076923077,224)" font-family="sans-serif" font-size="10px" fill="#888888">83</text><text text-anchor="middle" transform="translate(369.2307692307692,376)" font-family="sans-serif" font-size="10px" fill="#888888">7</text><text text-anchor="middle" transform="translate(430.7692307692308,360)" font-family="sans-serif" font-size="10px" fill="#888888">15</text><text text-anchor="middle" transform="translate(492.3076923076923,294)" font-family="sans-serif" font-size="10px" fill="#888888">48</text><text text-anchor="middle" transform="translate(553.8461538461538,167.99999999999997)" font-family="sans-serif" font-size="10px" fill="#888888">111</text><text text-anchor="middle" transform="translate(615.3846153846154,280)" font-family="sans-serif" font-size="10px" fill="#888888">55</text><text text-anchor="middle" transform="translate(676.9230769230769,110.00000000000001)" font-family="sans-serif" font-size="10px" fill="#888888">140</text><text text-anchor="middle" transform="translate(738.4615384615385,188)" font-family="sans-serif" font-size="10px" fill="#888888">101</text><text text-anchor="middle" transform="translate(800,288)" font-family="sans-serif" font-size="10px" fill="#888888">51</text></g></g><path class="foreground" aria-hidden="true" d="" display="none"/></g></g><g class="mark-group role-legend" role="graphics-symbol" aria-roledescription="legend" aria-label="Symbol legend for fill color with 5 values: onshape-robotics-toolkit, TMotorCANControl, opensourceleg, neurobionicspi, anton"><g transform="translate(0,451)"><path class="background" aria-hidden="true" d="M0,0h732v12h-732Z" pointer-events="none"/><g><g class="mark-group role-legend-entry"><g transform="translate(0,0)"><path class="background" aria-hidden="true" d="M0,0h0v0h0Z" pointer-events="none"/><g><g class="mark-group role-scope" role="graphics-object" aria-roledescription="group mark container"><g transform="translate(0,0)"><path class="background" aria-hidden="true" d="M0,0h169v12h-169Z" pointer-events="none" opacity="1"/><g><g class="mark-symbol role-legend-symbol" pointer-events="none"><path transform="translate(6,6)" d="M5,0A5,5,0,1,1,-5,0A5,5,0,1,1,5,0" fill="rgb(184, 227, 190)" stroke-width="1.5" opacity="1"/></g><g class="mark-text role-legend-label" pointer-events="none"><text text-anchor="start" transform="translate(16,10)" font-family="Arial, sans-serif" font-size="12px" fill="#bfc6cc" opacity="1">onshape-robotic…</text></g></g><path class="foreground" aria-hidden="true" d="" pointer-events="none" display="none"/></g><g transform="translate(179,0)"><path class="background" aria-hidden="true" d="M0,0h169v12h-169Z" pointer-events="none" opacity="1"/><g><g class="mark-symbol role-legend-symbol" pointer-events="none"><path transform="translate(6,6)" d="M5,0A5,5,0,1,1,-5,0A5,5,0,1,1,5,0" fill="rgb(147, 213, 189)" stroke-width="1.5" opacity="1"/></g><g class="mark-text role-legend-label" pointer-events="none"><text text-anchor="start" transform="translate(16,10)" font-family="Arial, sans-serif" font-size="12px" fill="#bfc6cc" opacity="1">TMotorCANControl</text></g></g><path class="foreground" aria-hidden="true" d="" pointer-events="none" display="none"/></g><g transform="translate(358,0)"><path class="background" aria-hidden="true" d="M0,0h140v12h-140Z" pointer-events="none" opacity="1"/><g><g class="mark-symbol role-legend-symbol" pointer-events="none"><path transform="translate(6,6)" d="M5,0A5,5,0,1,1,-5,0A5,5,0,1,1,5,0" fill="rgb(105, 194, 202)" stroke-width="1.5" opacity="1"/></g><g class="mark-text role-legend-label" pointer-events="none"><text text-anchor="start" transform="translate(16,10)" font-family="Arial, sans-serif" font-size="12px" fill="#bfc6cc" opacity="1">opensourceleg</text></g></g><path class="foreground" aria-hidden="true" d="" pointer-events="none" display="none"/></g><g transform="translate(508,0)"><path class="background" aria-hidden="true" d="M0,0h150v12h-150Z" pointer-events="none" opacity="1"/><g><g class="mark-symbol role-legend-symbol" pointer-events="none"><path transform="translate(6,6)" d="M5,0A5,5,0,1,1,-5,0A5,5,0,1,1,5,0" fill="rgb(67, 165, 201)" stroke-width="1.5" opacity="1"/></g><g class="mark-text role-legend-label" pointer-events="none"><text text-anchor="start" transform="translate(16,10)" font-family="Arial, sans-serif" font-size="12px" fill="#bfc6cc" opacity="1">neurobionicspi</text></g></g><path class="foreground" aria-hidden="true" d="" pointer-events="none" display="none"/></g><g transform="translate(668,0)"><path class="background" aria-hidden="true" d="M0,0h64v12h-64Z" pointer-events="none" opacity="1"/><g><g class="mark-symbol role-legend-symbol" pointer-events="none"><path transform="translate(6,6)" d="M5,0A5,5,0,1,1,-5,0A5,5,0,1,1,5,0" fill="rgb(34, 131, 185)" stroke-width="1.5" opacity="1"/></g><g class="mark-text role-legend-label" pointer-events="none"><text text-anchor="start" transform="translate(16,10)" font-family="Arial, sans-serif" font-size="12px" fill="#bfc6cc" opacity="1">anton</text></g></g><path class="foreground" aria-hidden="true" d="" pointer-events="none" display="none"/></g></g></g><path class="foreground" aria-hidden="true" d="" pointer-events="none" display="none"/></g></g></g><path class="foreground" aria-hidden="true" d="" pointer-events="none" display="none"/></g></g><g class="mark-group role-title"><g transform="translate(386,-26)"><path class="background" aria-hidden="true" d="M0,0h0v0h0Z" pointer-events="none"/><g><g class="mark-text role-title-text" role="graphics-symbol" aria-roledescription="title" aria-label="Title text 'Repository Views Over Time'" pointer-events="none"><text text-anchor="middle" transform="translate(0,13)" font-family="Arial, sans-serif" font-size="16px" font-weight="bold" fill="#bfc6cc" opacity="1">Repository Views Over Time</text></g></g><path class="foreground" aria-hidden="true" d="" pointer-events="none" display="none"/></g></g></g><path class="foreground" aria-hidden="true" d="" display="none"/></g></g></g></svg>